<?xml version="1.0" standalone="no"?>
<!DOCTYPE svg PUBLIC "-//W3C//DTD SVG 20010904//EN"
 "http://www.w3.org/TR/2001/REC-SVG-20010904/DTD/svg10.dtd">
<svg version="1.0" xmlns="http://www.w3.org/2000/svg"
 width="700.000000pt" height="700.000000pt" viewBox="0 0 700.000000 700.000000"
 preserveAspectRatio="xMidYMid meet">
<metadata>
Created by potrace 1.11, written by Peter Selinger 2001-2013
</metadata>
<g transform="translate(0.000000,700.000000) scale(0.100000,-0.100000)"
fill="#000000" stroke="none">
<path d="M1327 6714 c-1 -1 -29 -4 -62 -7 -238 -23 -475 -167 -611 -372 -59
-89 -92 -162 -120 -272 l-26 -98 -1 -808 -1 -808 339 -334 340 -335 75 -1 c41
0 104 -2 140 -4 63 -3 266 -11 540 -20 74 -3 189 -7 255 -10 66 -3 183 -7 260
-10 77 -3 199 -7 270 -10 72 -3 198 -7 280 -10 83 -3 197 -7 255 -10 58 -2
177 -7 265 -10 88 -3 203 -7 255 -10 52 -3 176 -7 275 -10 99 -4 216 -8 260
-10 44 -2 159 -7 255 -10 384 -14 526 -19 815 -30 66 -3 185 -7 265 -10 80 -2
206 -7 280 -10 226 -10 322 -14 398 -16 79 -2 90 -13 14 -15 -117 -3 -446 -15
-532 -19 -52 -3 -165 -7 -250 -10 -196 -7 -383 -14 -530 -20 -63 -3 -187 -7
-275 -10 -88 -3 -207 -7 -265 -10 -58 -2 -172 -7 -255 -10 -165 -6 -338 -12
-545 -20 -74 -3 -191 -7 -260 -10 -69 -2 -186 -7 -260 -10 -74 -2 -198 -7
-275 -10 -77 -3 -196 -7 -265 -10 -146 -6 -348 -13 -545 -20 -77 -3 -187 -7
-245 -10 -58 -2 -184 -7 -280 -10 -96 -4 -215 -8 -265 -10 -49 -2 -96 -4 -103
-5 -7 0 -165 -152 -351 -337 l-337 -338 1 -800 c2 -544 6 -813 13 -840 6 -22
14 -55 17 -73 8 -45 53 -157 88 -217 102 -175 286 -323 478 -384 99 -32 191
-43 299 -38 183 9 259 37 605 227 94 51 195 106 225 123 126 68 298 162 335
182 79 45 252 139 335 183 47 25 97 54 112 64 14 10 29 18 32 18 3 0 87 45
187 100 100 55 185 100 189 100 4 0 13 7 20 15 7 8 21 15 30 15 10 0 20 4 22
8 2 4 44 30 93 56 50 27 119 65 155 84 36 19 96 52 133 73 38 22 70 39 72 39
2 0 30 15 62 34 32 18 87 49 123 68 135 73 559 305 655 358 17 9 66 36 110 60
44 24 195 106 335 183 319 174 351 192 425 232 65 36 89 49 302 165 206 114
250 144 333 230 162 167 241 378 235 624 -6 208 -86 402 -229 555 -48 50 -136
122 -182 147 -11 7 -79 45 -150 85 -71 39 -154 85 -184 102 -30 16 -64 35 -75
42 -11 6 -45 26 -75 42 -82 45 -230 128 -270 150 -51 29 -766 426 -825 458
-27 15 -63 35 -80 45 -16 10 -57 32 -90 50 -33 18 -78 43 -100 56 -22 12 -159
88 -305 169 -146 81 -285 159 -310 172 -25 14 -106 59 -180 100 -74 42 -160
89 -190 106 -30 17 -208 115 -395 219 -187 103 -347 193 -355 198 -8 6 -22 13
-30 17 -8 4 -42 22 -75 41 -101 57 -404 225 -495 275 -30 16 -59 33 -65 37 -5
5 -50 28 -100 53 -103 52 -195 82 -280 93 -56 7 -153 12 -158 8z m5103 -3228
c0 -3 -4 -8 -10 -11 -5 -3 -10 -1 -10 4 0 6 5 11 10 11 6 0 10 -2 10 -4z"/>
</g>
</svg>
