<?xml version="1.0" encoding="UTF-8"?>
<svg width="46px" height="46px" viewBox="0 0 46 46" version="1.1" xmlns="http://www.w3.org/2000/svg" xmlns:xlink="http://www.w3.org/1999/xlink">
    <!-- Generator: Sketch 52.6 (67491) - http://www.bohemiancoding.com/sketch -->
    <title>Group 6</title>
    <desc>Created with Sketch.</desc>
    <defs>
        <rect id="path-1" x="0" y="0" width="46" height="46" rx="23"></rect>
    </defs>
    <g id="Page-1" stroke="none" stroke-width="1" fill="none" fill-rule="evenodd">
        <g id="Design" transform="translate(-263.000000, -3537.000000)">
            <g id="Group-6" transform="translate(263.000000, 3537.000000)">
                <mask id="mask-2" fill="white">
                    <use xlink:href="#path-1"></use>
                </mask>
                <use id="Mask-Copy-4" fill="#929FB1" fill-rule="nonzero" xlink:href="#path-1"></use>
                <g id="rocket-2" mask="url(#mask-2)">
                    <g transform="translate(-3.000000, 4.000000)">
                        <path d="M8.40291829,19.1547949 C8.40291829,19.1547949 0.378210117,26.1450879 0.359124514,26.1629297 C-0.00472762646,26.5296094 -0.00472762646,27.1228711 0.359124514,27.4895508 C0.550680934,27.679043 0.799669261,27.7697461 1.04857004,27.7628027 L10.2661284,26.8262402 L20.1101848,16.9244824 L8.40291829,19.1547949 Z" id="Path" fill="#CCD1D9" fill-rule="evenodd"></path>
                        <path d="M25.8312257,36.6524121 C25.8312257,36.6524121 18.8682198,44.7071484 18.8490467,44.7249902 C18.4851946,45.0916699 17.8941537,45.0916699 17.5303016,44.7249902 C17.3415467,44.535498 17.2511965,44.2841309 17.2567121,44.0355762 L18.1897179,34.7806055 L28.0529475,24.8980957 L25.8312257,36.6524121 Z" id="Path" fill="#CCD1D9" fill-rule="evenodd"></path>
                        <polygon id="Path" fill="#434A54" fill-rule="evenodd" points="14.2279669 36.1072266 8.94475681 30.8034668 8.94475681 25.4996191 19.5110895 36.1072266"></polygon>
                        <path d="M44.4058949,0.508974609 C39.4208755,-0.827314453 33.880535,0.467753906 29.9707879,4.39268555 L8.94475681,25.4996191 L19.5110895,36.1072266 L40.5372082,15.0003809 C44.4469553,11.074043 45.7383852,5.51337891 44.4058949,0.508974609 Z" id="Path" fill="#E6E9ED" fill-rule="evenodd"></path>
                        <path d="M22.1513813,24.1743164 C22.518035,23.8076367 22.5152335,23.2142871 22.1513813,22.8490137 C21.7875292,22.4824219 21.1937743,22.4837402 20.8298346,22.8504199 L8.94475681,34.7806934 C8.58081712,35.147373 8.58081712,35.7406348 8.94475681,36.1073145 C9.30860895,36.4725879 9.90236381,36.4725879 10.266216,36.1073145 L22.1513813,24.1743164 Z" id="Path" fill="#CCD1D9" fill-rule="evenodd"></path>
                        <path d="M32.0583852,18.2085645 C30.5973735,19.6725586 28.2335603,19.6725586 26.7751751,18.2085645 C25.3168774,16.743252 25.3168774,14.3687109 26.7751751,12.9047168 C28.2334728,11.4393164 30.597286,11.4393164 32.0583852,12.9047168 C33.5166829,14.3687109 33.5166829,16.7431641 32.0583852,18.2085645 Z" id="Path" fill="#434A54" fill-rule="evenodd"></path>
                        <path d="M29.4153794,20.2438477 C28.1678113,20.2438477 26.9967607,19.7563184 26.1129572,18.8705566 C25.2320428,17.9861133 24.7477237,16.8077637 24.7477237,15.5566406 C24.7477237,14.3041992 25.2319553,13.127168 26.1129572,12.2414062 C26.9967607,11.3555566 28.1678113,10.8681152 29.4153794,10.8681152 C30.6629475,10.8681152 31.8367121,11.3556445 32.7178016,12.2414062 C33.598716,13.1272559 34.085749,14.3041992 34.085749,15.5566406 C34.085749,16.8077637 33.5988035,17.9861133 32.7178016,18.8705566 C31.8367121,19.7563184 30.6629475,20.2438477 29.4153794,20.2438477 Z M29.4153794,12.7440527 C28.6685019,12.7440527 27.9625973,13.0366406 27.4345039,13.5680273 C26.9064981,14.0981836 26.6137354,14.8054395 26.6137354,15.5566406 C26.6137354,16.3078418 26.9064981,17.0137793 27.4345039,17.545166 C27.9625973,18.0766406 28.6685019,18.3691406 29.4153794,18.3691406 C30.1649708,18.3691406 30.8681615,18.0766406 31.3962549,17.545166 C31.9269747,17.0136914 32.2171109,16.3077539 32.2171109,15.5566406 C32.2171109,14.8054395 31.9270623,14.0981836 31.3962549,13.5680273 C30.8681615,13.0365527 30.1650584,12.7440527 29.4153794,12.7440527 Z" id="Shape" fill="#CCD1D9" fill-rule="nonzero"></path>
                    </g>
                </g>
            </g>
        </g>
    </g>
</svg>