<?xml version="1.0" encoding="UTF-8"?>
<svg width="46px" height="46px" viewBox="0 0 46 46" version="1.1" xmlns="http://www.w3.org/2000/svg" xmlns:xlink="http://www.w3.org/1999/xlink">
    <!-- Generator: Sketch 52.4 (67378) - http://www.bohemiancoding.com/sketch -->
    <title>Mask Copy 3</title>
    <desc>Created with Sketch.</desc>
    <defs>
        <rect id="path-1" x="0" y="0" width="46" height="46" rx="23"></rect>
        <polygon id="path-3" points="1.03028697e-13 36.7276596 46.9797014 36.7276596 46.9797014 0.0205617021 1.03028697e-13 0.0205617021"></polygon>
    </defs>
    <g id="Page-1" stroke="none" stroke-width="1" fill="none" fill-rule="evenodd">
        <g id="Design" transform="translate(-237.000000, -3355.000000)">
            <g id="Mask-Copy-3" transform="translate(237.000000, 3355.000000)">
                <mask id="mask-2" fill="white">
                    <use xlink:href="#path-1"></use>
                </mask>
                <use id="Mask-Copy-2" fill="#ECECEC" fill-rule="nonzero" xlink:href="#path-1"></use>
                <g id="Group-22" mask="url(#mask-2)">
                    <g transform="translate(-1.000000, 10.000000)">
                        <polygon id="Fill-1" fill="#414042" points="0 31.8432681 46.9795652 31.8432681 46.9795652 4.7076766 0 4.7076766"></polygon>
                        <g id="Group-21" stroke-width="1" fill="none" transform="translate(0.000000, 0.115609)">
                            <path d="M40.6422078,18.159714 C40.6422078,24.6480885 35.3798426,29.9082077 28.8883933,29.9082077 C22.3969441,29.9082077 17.1345788,24.6480885 17.1345788,18.159714 C17.1345788,11.6712034 22.3969441,6.4113566 28.8883933,6.4113566 C35.3798426,6.4113566 40.6422078,11.6712034 40.6422078,18.159714" id="Fill-2" fill="#D1D3D4"></path>
                            <mask id="mask-4" fill="white">
                                <use xlink:href="#path-3"></use>
                            </mask>
                            <g id="Clip-5"></g>
                            <polygon id="Fill-4" fill="#D1D3D4" mask="url(#mask-4)" points="0 9.73085957 46.9797014 9.73085957 46.9797014 4.59206809 0 4.59206809"></polygon>
                            <polygon id="Fill-6" fill="#D1D3D4" mask="url(#mask-4)" points="1.03028697e-13 38.7276596 46.9797014 38.7276596 46.9797014 26.5888681 1.03028697e-13 26.5888681"></polygon>
                            <path d="M38.9048562,18.159714 C38.9048562,23.6890417 34.4203751,28.1717651 28.888407,28.1717651 C23.3564388,28.1717651 18.8719577,23.6890417 18.8719577,18.159714 C18.8719577,12.6303864 23.3564388,8.14793532 28.888407,8.14793532 C34.4203751,8.14793532 38.9048562,12.6303864 38.9048562,18.159714" id="Fill-7" fill="#22363F" mask="url(#mask-4)"></path>
                            <path d="M36.12514,18.159714 C36.12514,22.1548119 32.8850009,25.3933481 28.8883661,25.3933481 C24.8918675,25.3933481 21.6517284,22.1548119 21.6517284,18.159714 C21.6517284,14.1650247 24.8918675,10.9264885 28.8883661,10.9264885 C32.8850009,10.9264885 36.12514,14.1650247 36.12514,18.159714" id="Fill-8" fill="#4E7387" mask="url(#mask-4)"></path>
                            <path d="M36.12514,18.159714 C36.12514,22.1548119 32.8850009,25.3933481 28.8883661,25.3933481 C24.8918675,25.3933481 21.6517284,22.1548119 21.6517284,18.159714 C21.6517284,14.1650247 24.8918675,10.9264885 28.8883661,10.9264885 C32.8850009,10.9264885 36.12514,14.1650247 36.12514,18.159714 Z" id="Stroke-9" stroke="#578CA3" stroke-width="0.665" mask="url(#mask-4)"></path>
                            <path d="M32.820713,18.159714 C32.820713,20.3302672 31.0600522,22.0904034 28.8883797,22.0904034 C26.716571,22.0904034 24.9561826,20.3302672 24.9561826,18.159714 C24.9561826,15.9890247 26.716571,14.2294332 28.8883797,14.2294332 C31.0600522,14.2294332 32.820713,15.9890247 32.820713,18.159714" id="Fill-10" fill="#204856" mask="url(#mask-4)"></path>
                            <path d="M31.3729768,18.159714 C31.3729768,19.5313566 30.2605072,20.6433226 28.8883797,20.6433226 C27.5163884,20.6433226 26.4037826,19.5313566 26.4037826,18.159714 C26.4037826,16.7883438 27.5163884,15.676514 28.8883797,15.676514 C30.2605072,15.676514 31.3729768,16.7883438 31.3729768,18.159714" id="Fill-11" fill="#092830" mask="url(#mask-4)"></path>
                            <path d="M37.8124672,6.88889191 C37.8124672,7.36834723 37.4085397,7.75724936 36.9104759,7.75724936 L21.3969339,7.75724936 C20.8988701,7.75724936 20.4950788,7.36834723 20.4950788,6.88889191 L20.4950788,0.88882383 C20.4950788,0.409504681 20.8988701,0.0206025532 21.3969339,0.0206025532 L36.9104759,0.0206025532 C37.4085397,0.0206025532 37.8124672,0.409504681 37.8124672,0.88882383 L37.8124672,6.88889191 Z" id="Fill-12" fill="#D1D3D4" mask="url(#mask-4)"></path>
                            <path d="M27.7424278,12.5330451 C27.7424278,13.8808579 26.6493032,14.9734877 25.3007438,14.9734877 C23.9523206,14.9734877 22.8593322,13.8808579 22.8593322,12.5330451 C22.8593322,11.1853685 23.9523206,10.0927387 25.3007438,10.0927387 C26.6493032,10.0927387 27.7424278,11.1853685 27.7424278,12.5330451" id="Fill-13" fill="#FFFFFF" mask="url(#mask-4)"></path>
                            <path d="M28.3975125,15.5895626 C28.3975125,16.0183626 28.0498487,16.3662774 27.620582,16.3662774 C27.1914516,16.3662774 26.8440603,16.0183626 26.8440603,15.5895626 C26.8440603,15.1607626 27.1914516,14.81312 27.620582,14.81312 C28.0498487,14.81312 28.3975125,15.1607626 28.3975125,15.5895626" id="Fill-14" fill="#FFFFFF" mask="url(#mask-4)"></path>
                            <path d="M36.4300542,4.3476017 C36.4300542,4.82705702 35.9982036,5.21582298 35.4651238,5.21582298 L27.362402,5.21582298 C26.8297761,5.21582298 26.3974716,4.82705702 26.3974716,4.3476017 L26.3974716,1.7428017 C26.3974716,1.26321021 26.8297761,0.874444255 27.362402,0.874444255 L35.4651238,0.874444255 C35.9982036,0.874444255 36.4300542,1.26321021 36.4300542,1.7428017 L36.4300542,4.3476017 Z" id="Fill-15" fill="#4E7387" mask="url(#mask-4)"></path>
                            <path d="M25.8440194,2.5531234 C25.8440194,3.03257872 25.4550774,3.42134468 24.9752687,3.42134468 L23.448518,3.42134468 C22.9688455,3.42134468 22.5797672,3.03257872 22.5797672,2.5531234 L22.5797672,2.09000851 C22.5797672,1.61055319 22.9688455,1.22178723 23.448518,1.22178723 L24.9752687,1.22178723 C25.4550774,1.22178723 25.8440194,1.61055319 25.8440194,2.09000851 L25.8440194,2.5531234 Z" id="Fill-16" fill="#22363F" mask="url(#mask-4)"></path>
                            <path d="M24.56424,4.65146553 C24.56424,4.98712511 24.2917762,5.25919319 23.9561009,5.25919319 C23.6202893,5.25919319 23.3479617,4.98712511 23.3479617,4.65146553 C23.3479617,4.31580596 23.6202893,4.0436017 23.9561009,4.0436017 C24.2917762,4.0436017 24.56424,4.31580596 24.56424,4.65146553" id="Fill-17" fill="#BE1E2D" mask="url(#mask-4)"></path>
                            <polygon id="Fill-18" fill="#939598" mask="url(#mask-4)" points="6.0855942 4.59206809 11.8595101 4.59206809 11.8595101 3.04517447 6.0855942 3.04517447"></polygon>
                        </g>
                    </g>
                </g>
            </g>
        </g>
    </g>
</svg>