<?xml version="1.0" encoding="UTF-8"?>
<svg width="46px" height="46px" viewBox="0 0 46 46" version="1.1" xmlns="http://www.w3.org/2000/svg" xmlns:xlink="http://www.w3.org/1999/xlink">
    <!-- Generator: Sketch 52.4 (67378) - http://www.bohemiancoding.com/sketch -->
    <title>logo-gulp copy 2</title>
    <desc>Created with Sketch.</desc>
    <defs>
        <rect id="path-1" x="0" y="0" width="46" height="46" rx="23"></rect>
    </defs>
    <g id="Page-1" stroke="none" stroke-width="1" fill="none" fill-rule="evenodd">
        <g id="Development" transform="translate(-87.000000, -7993.000000)">
            <g id="logo-gulp-copy-2" transform="translate(87.000000, 7993.000000)">
                <mask id="mask-2" fill="white">
                    <use xlink:href="#path-1"></use>
                </mask>
                <use id="Mask" fill="#ECECEC" fill-rule="nonzero" xlink:href="#path-1"></use>
                <g mask="url(#mask-2)" fill-rule="nonzero" id="Shape">
                    <g transform="translate(7.000000, 2.000000)">
                        <path d="M24.66,66.8969629 L25.338375,55.872811 L27.2115,52.7544011 C27.2115,52.7544011 22.94825,54.4552633 15.810875,54.4552633 C8.673375,54.4552633 4.47475,52.7858534 4.47475,52.7858534 L6.574,56.1875777 L7.316625,66.8969629 C7.316625,68.0450936 11.199,68.9757403 15.988375,68.9757403 C20.7775,68.9757403 24.66,68.0450936 24.66,66.8969629 M22.520125,15.4157703 L23.944,9.92685689 L31.829125,1.83508304 L29.750875,0.108742049 L21.402875,8.7285 L19.749625,15.2863039 C18.5053542,15.2456435 17.260469,15.2254445 16.0155,15.2257155 C7.2235,15.2257155 0.096125,16.2029311 0.096125,17.4081148 C0.096125,18.6134205 7.2235,19.5905141 16.0155,19.5905141 C24.807375,19.5905141 31.934625,18.6134205 31.934625,17.4081148 C31.934625,16.5206237 28.069125,15.7567473 22.520125,15.4157703" fill="#D34A47"></path>
                        <path d="M21.691875,18.4896837 C21.691875,18.4896837 21.3835,18.5570989 20.476375,18.5608781 C19.569,18.5645353 18.92475,18.5551484 18.668125,18.3271802 C18.599125,18.2659823 18.561375,18.1444399 18.56175,18.0621519 C18.5625,17.9055 18.6765,17.8132155 18.82175,17.7554311 L18.959125,17.9656007 C18.899375,17.9857155 18.86525,18.0094876 18.865125,18.0348445 C18.864625,18.1538269 19.792875,18.2352615 20.502875,18.2264841 C21.213,18.2179505 22.071,18.1608975 22.07175,18.0436219 C22.07175,18.0081466 22.006875,17.9747438 21.894,17.9484117 L22.03075,17.7397049 C22.21475,17.795417 22.375375,17.9030618 22.375,18.0893375 C22.37325,18.4060548 21.96,18.4542085 21.691875,18.4896837" fill="#FFFFFF"></path>
                        <path d="M31.813625,1.851053 C32.011875,1.62771731 31.711,1.05645583 31.141625,0.575284452 C30.572,0.0943568905 29.9495,-0.11459364 29.750875,0.108742049 C29.5525,0.332077739 29.8535,0.903339223 30.423125,1.38426678 C30.9925,1.86531625 31.61525,2.0745106 31.813625,1.851053 M24.28075,39.9694081 C24.093875,38.2158816 28.2135,35.6762915 27.15625,35.5949788 C24.88025,35.7218852 23.7475,38.1962544 22.602375,40.7877774 C22.18275,41.7375636 20.746875,45.7875954 19.805125,45.2889912 C18.863625,44.7906307 21.02575,41.4602226 21.63175,39.4823852 C20.9325,39.9824523 18.368125,41.9255459 17.70725,40.1058233 C16.64475,40.9858781 14.374375,41.4626608 14.6305,39.150917 C14.06525,40.1274011 12.796625,41.4906996 11.273875,40.9241926 C9.274125,40.1804311 12.432625,33.967871 13.218,34.2812968 C14.0035,34.5946007 13.0595,36.0098322 12.81225,36.559394 C12.2685,37.7688445 11.640375,39.2892827 12.06,39.6005141 C12.778875,40.1337403 14.735125,37.5833004 14.778625,37.5272226 C15.1445,37.0558039 16.186875,33.9716502 17.027,34.3257933 C17.867125,34.6799364 14.9315,38.7520336 16.029125,39.5601625 C16.2505,39.7232756 17.15625,39.4595883 17.70725,38.8782085 C18.06375,38.5021219 17.941125,37.6691237 19.1295,34.9052226 C20.317875,32.1414435 21.377,28.6994894 22.192,28.9617138 C23.007,29.2238163 22.33525,30.9903869 22.042875,31.6489346 C20.670875,34.7397933 18.298375,39.846159 19.41725,39.4595883 C20.536125,39.0731396 21.11875,39.0504647 22.214375,37.800053 C23.31,36.5496413 23.2595,34.4900035 23.98975,34.5337686 C24.72025,34.5776555 24.597625,35.2380318 24.4205,35.7409028 C25.13925,34.9387473 27.8275,33.2493445 28.4765,34.9225336 C29.24525,36.9034187 24.630375,39.7647244 25.781,39.6188004 C26.902875,39.4765336 28.720375,38.3538816 29.496375,37.3331449 L31.632375,18.6048869 C31.632375,18.6048869 29.483,20.3396396 15.80875,20.3396396 C2.134375,20.3396396 0.207375,18.6409717 0.207375,18.6409717 L2.025875,35.735417 C2.991125,33.0598993 5.28325,27.6481537 8.89625,27.8297968 C10.53975,27.9124505 12.73375,30.9987986 10.854375,31.1033958 C10.058875,31.1475265 9.978125,29.5628428 9.036125,29.3301201 C8.356375,29.1621307 7.41,29.7010866 6.798375,30.2850265 C5.578625,31.4492491 2.95525,36.0426254 3.301875,38.3326696 C3.7435,41.2522473 7.432875,37.3181502 8.057125,36.1501484 C8.49675,35.3273905 8.79375,32.8897155 9.75525,33.1454788 C10.716875,33.401242 9.671375,35.9169382 8.974375,38.1411519 C8.191375,40.6386837 7.77975,43.2732403 6.798375,42.9701767 C5.816875,42.6673569 7.415625,39.4431307 7.35775,38.8782085 C6.43525,39.7082809 4.73575,41.8097332 2.5615,40.7696131 L3.690875,51.385129 C3.690875,51.385129 6.6925,53.6980919 15.734625,53.6980919 C24.77675,53.6980919 27.8895,51.4212138 27.8895,51.4212138 L29.291875,39.1259258 C28.1445,40.2155406 24.51325,42.1504664 24.28075,39.9694081" fill="#D34A47"></path>
                    </g>
                </g>
            </g>
        </g>
    </g>
</svg>