<?xml version="1.0" encoding="UTF-8" standalone="no"?>
<svg width="46px" height="46px" viewBox="0 0 46 46" version="1.1" xmlns="http://www.w3.org/2000/svg" xmlns:xlink="http://www.w3.org/1999/xlink">
    <!-- Generator: Sketch 50 (54983) - http://www.bohemiancoding.com/sketch -->
    <title>Group 62-circle</title>
    <desc>Created with Sketch.</desc>
    <defs>
        <rect id="path-1" x="0" y="0" width="46" height="46" rx="23"></rect>
    </defs>
    <g id="Page-1" stroke="none" stroke-width="1" fill="none" fill-rule="evenodd">
        <g id="Development" transform="translate(-87.000000, -6277.000000)">
            <g id="Group-62" transform="translate(87.000000, 6277.000000)">
                <mask id="mask-2" fill="white">
                    <use xlink:href="#path-1"></use>
                </mask>
                <use id="Rectangle-Copy-2-Copy-96" fill="#ECECEC" fill-rule="nonzero" xlink:href="#path-1"></use>
                <g id="logo-html-5-copy" mask="url(#mask-2)" fill-rule="nonzero">
                    <g transform="translate(6.000000, 10.000000)" id="Shape">
                        <polygon fill="#E44D26" points="34.9391602 0.0182079808 31.7616797 34.9875754 17.4786719 38.8775078 3.23503906 34.9929478 0.0608398437 0.0182079808"></polygon>
                        <polygon fill="#F16529" points="17.5 35.9041177 29.0413867 32.7608234 31.7566211 2.87783619 17.5 2.87783619"></polygon>
                        <path d="M11.3230469,11.4569894 L17.5,11.4569894 L17.5,7.16747997 L6.55115234,7.16747997 L6.65560547,8.31826174 L7.72884766,20.1390254 L17.5,20.1390254 L17.5,15.8495159 L11.7221289,15.8495159 L11.3230469,11.4569894 Z M12.3071484,22.2838473 L7.92394531,22.2838473 L8.535625,29.0190366 L17.4799023,31.4581352 L17.5,31.4527627 L17.5,26.989857 L17.4808594,26.9948265 L12.6180469,25.704898 L12.3071484,22.2838473 Z" fill="#EBEBEB"></path>
                        <path d="M17.4849609,20.1390254 L22.8616992,20.1390254 L22.3547461,25.7022117 L17.4848242,26.9934834 L17.4848242,31.4561205 L26.4362109,29.0190366 L26.5018359,28.2942912 L27.5280469,17.0013722 L27.6345508,15.8495159 L17.4849609,15.8495159 L17.4849609,20.1390254 Z M17.4849609,11.4465131 L17.4849609,11.4569894 L28.0318555,11.4569894 L28.1193555,10.4929008 L28.318418,8.31826174 L28.4227344,7.16747997 L17.4849609,7.16747997 L17.4849609,11.4466475 L17.4849609,11.4465131 Z" fill="#FFFFFF"></path>
                    </g>
                </g>
            </g>
        </g>
    </g>
</svg>