<?xml version="1.0" encoding="UTF-8" standalone="no"?>
<svg width="46px" height="46px" viewBox="0 0 46 46" version="1.1" xmlns="http://www.w3.org/2000/svg" xmlns:xlink="http://www.w3.org/1999/xlink">
    <!-- Generator: Sketch 50 (54983) - http://www.bohemiancoding.com/sketch -->
    <title>logo-adobe-indesign-circle</title>
    <desc>Created with Sketch.</desc>
    <defs>
        <rect id="path-1" x="0" y="0" width="46" height="46" rx="23"></rect>
        <radialGradient cx="32.9351254%" cy="22.4100935%" fx="32.9351254%" fy="22.4100935%" r="78.1307812%" gradientTransform="translate(0.329351,0.224101),scale(0.972727,1.000000),translate(-0.329351,-0.224101)" id="radialGradient-3">
            <stop stop-color="#4B2B36" stop-opacity="0.98" offset="0%"></stop>
            <stop stop-color="#250012" offset="100%"></stop>
        </radialGradient>
    </defs>
    <g id="Page-1" stroke="none" stroke-width="1" fill="none" fill-rule="evenodd">
        <g id="Design" transform="translate(-83.000000, -3038.000000)">
            <g id="logo-adobe-indesign" transform="translate(83.000000, 3038.000000)">
                <mask id="mask-2" fill="white">
                    <use xlink:href="#path-1"></use>
                </mask>
                <use id="Mask" fill="#ECECEC" fill-rule="nonzero" xlink:href="#path-1"></use>
                <g mask="url(#mask-2)" fill-rule="nonzero" id="Shape">
                    <g transform="translate(3.817139, 12.500000)">
                        <polygon fill="url(#radialGradient-3)" points="1.59238816 1.64028243 36.6254413 1.64028243 36.6254413 35.7178898 1.59238816 35.7178898"></polygon>
                        <path d="M1.59238816,1.64028243 L36.6254413,1.64028243 L36.6254413,35.7178898 L1.59238816,35.7178898 L1.59238816,1.64028243 Z M0,37.3103421 L38.2178294,37.3103421 L38.2178294,0.0478942695 L0,0.0478942695 L0,37.3103421 Z M24.1728028,15.5260895 C23.9339093,15.4146358 23.6154059,15.3668699 23.2332148,15.3668699 C21.1790257,15.3668699 19.7458571,16.9434004 19.7458571,19.570844 C19.7458571,22.5645569 21.2108696,23.7747539 23.0422155,23.7747539 C23.4402644,23.7747539 23.8542995,23.726988 24.1728028,23.5836904 L24.1728028,15.5260895 Z M23.3287465,12.9304897 C23.6631718,12.9304897 23.8542995,12.9304897 24.1727386,12.9623337 L24.1727386,8.72651567 C24.1727386,8.61506198 24.2523484,8.56729611 24.3318939,8.56729611 L26.9116359,8.56729611 C27.0390116,8.56729611 27.0708555,8.61506198 27.0708555,8.69467175 L27.0708555,23.5837546 C27.0708555,24.0295694 27.0708555,24.5869662 27.1504653,25.1920647 C27.1504653,25.3035184 27.1186214,25.3194404 27.0071677,25.3831924 C25.6376869,26.0360568 24.1886605,26.3227162 22.8351017,26.3227162 C19.3159001,26.3227162 16.7998459,24.1411515 16.7998459,19.6982839 C16.7839882,15.8923587 19.2999782,12.9304897 23.3287465,12.9304897 Z M13.981403,25.8768372 C13.981403,26.0359926 13.9495591,26.0838227 13.7743534,26.0838227 L11.3220512,26.0838227 C11.1628317,26.0838227 11.1150016,26.0042129 11.1150016,25.8768372 L11.1150016,8.77428153 C11.1150016,8.61506198 11.1946114,8.56723191 11.3220512,8.56723191 L13.7902753,8.56723191 C13.917651,8.56723191 13.981403,8.61499778 13.981403,8.75835958 L13.981403,25.8768372 Z" fill="#FF408C"></path>
                    </g>
                </g>
            </g>
        </g>
    </g>
</svg>