<?xml version="1.0" encoding="UTF-8" standalone="no"?>
<svg width="46px" height="46px" viewBox="0 0 46 46" version="1.1" xmlns="http://www.w3.org/2000/svg" xmlns:xlink="http://www.w3.org/1999/xlink">
    <!-- Generator: Sketch 50 (54983) - http://www.bohemiancoding.com/sketch -->
    <title>Group 49-circle</title>
    <desc>Created with Sketch.</desc>
    <defs>
        <rect id="path-1" x="0" y="0" width="46" height="46" rx="23"></rect>
    </defs>
    <g id="Page-1" stroke="none" stroke-width="1" fill="none" fill-rule="evenodd">
        <g id="Development" transform="translate(-87.000000, -5155.000000)">
            <g id="Group-49" transform="translate(87.000000, 5155.000000)">
                <mask id="mask-2" fill="white">
                    <use xlink:href="#path-1"></use>
                </mask>
                <use id="Rectangle-Copy-2-Copy-79" fill="#ECECEC" fill-rule="nonzero" xlink:href="#path-1"></use>
                <g id="logo-javascript" mask="url(#mask-2)" fill-rule="nonzero">
                    <g transform="translate(-7.000000, -4.000000)" id="Shape">
                        <polygon fill="#F7DF1E" points="0 0 55 0 55 55 0 55"></polygon>
                        <path d="M21.095125,38.4409062 L24.6152031,36.3105312 C25.2944219,37.5146172 25.9121875,38.5334453 27.3940703,38.5334453 C28.8145,38.5334453 29.7102422,37.9778516 29.7102422,35.8165703 L29.7102422,21.1184922 L34.0329844,21.1184922 L34.0329844,35.8776641 C34.0329844,40.3549375 31.4084687,42.3929531 27.5793281,42.3929531 C24.1212422,42.3929531 22.1139531,40.6020078 21.0949453,38.4405469 M36.3809609,37.9776719 L39.9006797,35.9398359 C40.8273281,37.4529844 42.0315937,38.5645313 44.1619687,38.5645313 C45.9532734,38.5645313 47.0953672,37.6689687 47.0953672,36.4337969 C47.0953672,34.9517344 45.9220078,34.4266875 43.9458047,33.5623906 L42.8653437,33.0987969 C39.7465078,31.7714453 37.6777656,30.1039453 37.6777656,26.5838672 C37.6777656,23.3415859 40.1479297,20.8712422 44.0077969,20.8712422 C46.7559375,20.8712422 48.7321406,21.8286172 50.1523906,24.3296875 L46.7864844,26.4913281 C46.0452734,25.1636172 45.2427891,24.63875 44.0076172,24.63875 C42.7415391,24.63875 41.9386953,25.4415937 41.9386953,26.4913281 C41.9386953,27.7881328 42.7415391,28.3133594 44.5941172,29.1162031 L45.6747578,29.5792578 C49.3493672,31.1542187 51.4181094,32.7597266 51.4181094,36.3721641 C51.4181094,40.2631172 48.3612656,42.3934922 44.2545078,42.3934922 C40.2404687,42.3934922 37.6466797,40.4791016 36.3807812,37.9778516" fill="#000000"></path>
                    </g>
                </g>
            </g>
        </g>
    </g>
</svg>