<?xml version="1.0" encoding="UTF-8"?>
<svg width="46px" height="46px" viewBox="0 0 46 46" version="1.1" xmlns="http://www.w3.org/2000/svg" xmlns:xlink="http://www.w3.org/1999/xlink">
    <!-- Generator: Sketch 52.4 (67378) - http://www.bohemiancoding.com/sketch -->
    <title>Mask Copy 4</title>
    <desc>Created with Sketch.</desc>
    <defs>
        <rect id="path-1" x="0" y="0" width="46" height="46" rx="23"></rect>
    </defs>
    <g id="Page-1" stroke="none" stroke-width="1" fill="none" fill-rule="evenodd">
        <g id="Design" transform="translate(-145.000000, -3350.000000)">
            <g id="Mask-Copy-4" transform="translate(145.000000, 3350.000000)">
                <mask id="mask-2" fill="white">
                    <use xlink:href="#path-1"></use>
                </mask>
                <use id="Mask-Copy-2" fill="#ECECEC" fill-rule="nonzero" xlink:href="#path-1"></use>
                <g id="joomla" mask="url(#mask-2)">
                    <g transform="translate(3.000000, 11.000000)" id="Path">
                        <path d="M38.9492695,5.51333333 C38.9492695,2.62852713 36.6513164,0.289922481 33.8166563,0.289922481 C31.2283359,0.289922481 29.088668,2.24 28.7361445,4.77503876 L28.6841953,4.74713178 C24.486668,2.82046512 20.9509219,6.23302326 20.9509219,6.23302326 L11.5983867,15.7976744 L15.2937891,19.4193798 L22.8215508,11.8928682 C26.3367305,8.31534884 28.2507773,10.7367442 28.2507773,10.7367442 C30.8969883,13.0117829 28.3418789,15.7048062 28.3418789,15.7048062 L32.1286875,19.4193798 C35.2209609,16.0204651 35.4002695,13.0541085 34.4603086,10.6944186 C36.991043,10.371938 38.9492695,8.17612403 38.9492695,5.51333333" fill="#F9AE41"></path>
                        <path d="M34.5079922,29.535969 C34.5255117,29.5026357 34.5354141,29.4832558 34.5354141,29.4832558 C36.4287422,25.2113178 33.0753516,21.6130233 33.0753516,21.6130233 L23.6768086,12.0947287 L20.1182109,15.855814 L27.5138906,23.5165891 C31.0290703,27.0941085 28.6497656,29.0421705 28.6497656,29.0421705 C26.4144258,31.7351938 23.7682148,29.1348837 23.7682148,29.1348837 L20.1182109,32.9885271 C23.4578906,36.1355039 26.3728359,36.3179845 28.6913555,35.3613953 C29.0082305,37.9368992 31.1660273,39.9299225 33.7825313,39.9299225 C36.6171914,39.9299225 38.9149922,37.5913178 38.9149922,34.7065116 C38.9149922,32.0724031 36.9989648,29.8948837 34.5079922,29.535969" fill="#EE4035"></path>
                        <path d="M23.7567891,20.6263566 L16.2290273,28.1527132 C12.7136953,31.7303876 10.7996484,29.3091473 10.7996484,29.3091473 C8.1534375,27.0339535 10.7083945,24.3410853 10.7083945,24.3410853 L6.92189063,20.6263566 C3.82961719,24.0251163 3.65015625,26.9914729 4.58996484,29.3511628 C2.05923047,29.6737984 0.101003906,31.8694574 0.101003906,34.5324031 C0.101003906,37.4172093 2.39895703,39.7556589 5.23376953,39.7556589 C7.82208984,39.755814 9.96175781,37.8058915 10.3142813,35.2708527 C10.3471875,35.2886822 10.3662305,35.2986047 10.3662305,35.2986047 C14.5639102,37.2257364 18.0995039,33.8127132 18.0995039,33.8127132 L27.4521914,24.247907 L23.7567891,20.6263566" fill="#4F91CD"></path>
                        <path d="M11.5365352,16.5291473 C8.02120312,12.9516279 10.4002031,11.0035659 10.4002031,11.0035659 C12.636,8.31054264 15.2820586,10.9108527 15.2820586,10.9108527 L18.9320625,7.05736434 C15.5923828,3.9103876 12.6775898,3.72790698 10.358918,4.68434109 C10.042043,2.10868217 7.88455078,0.115813953 5.26758984,0.115813953 C2.43338672,0.115813953 0.135585937,2.4544186 0.13528125,5.33922481 C0.13528125,7.97348837 2.05130859,10.1510078 4.54243359,10.5097674 C4.52491406,10.5432558 4.51516406,10.5627907 4.51516406,10.5627907 C2.62153125,14.8344186 5.97507422,18.4325581 5.97507422,18.4325581 L15.3737695,27.9508527 L18.9323672,24.1900775 L11.5366875,16.5291473" fill="#7AC043"></path>
                    </g>
                </g>
            </g>
        </g>
    </g>
</svg>