<?xml version="1.0" encoding="UTF-8"?>
<svg width="60px" height="77px" viewBox="0 0 60 77" version="1.1" xmlns="http://www.w3.org/2000/svg" xmlns:xlink="http://www.w3.org/1999/xlink">
    <!-- Generator: sketchtool 50.2 (55047) - http://www.bohemiancoding.com/sketch -->
    <title>42D59333-41B4-41DA-B67C-2707C164210B</title>
    <desc>Created with sketchtool.</desc>
    <defs></defs>
    <g id="Page-1" stroke="none" stroke-width="1" fill="none" fill-rule="evenodd">
        <g id="home-logged-boxy" transform="translate(-223.000000, -593.000000)" fill="#1D1D1D" fill-rule="nonzero">
            <g id="finance-shopping-money-growth" transform="translate(223.000000, 593.000000)">
                <g id="XMLID_1191_" transform="translate(19.200000, 1.203125)">
                    <path d="M9.267192,32.4961295 C8.914452,32.4961295 8.560548,32.4937834 8.20782,32.484375 C4.876176,32.3962581 1.90782,30.3718559 0.646884,27.3276248 C0.392592,26.7131408 0.683208,26.0093608 1.294932,25.7543945 C1.908996,25.5017864 2.609772,25.7896461 2.864076,26.4041302 C3.761736,28.5730397 5.883996,30.0158513 8.271108,30.078125 C8.940252,30.0969298 9.611736,30.0910466 10.28556,30.0839962 L11.32266,30.078125 L11.872272,30.0804711 C13.224612,30.0875214 14.49024,30.0980969 15.61524,29.6081483 C17.748048,28.6787823 19.222272,26.4041181 19.2,24.0742425 C19.2,21.4236017 17.473824,19.0502572 15.001176,18.2900747 C14.02266,17.9892934 12.908208,18.0116114 11.726952,18.0351205 C11.129292,18.046875 10.545708,18.046875 9.948048,18.0562714 C8.548824,18.0832936 7.106256,18.1056236 5.67774,17.6250714 C2.300388,16.4877453 -0.033984,13.1932522 3.4423419e-17,9.61324547 C3.4423419e-17,6.28937203 2.021484,3.17347078 5.030856,1.87165344 C6.625776,1.18197406 8.220696,1.19254953 9.755856,1.20076688 L10.27734,1.203125 L11.293356,1.19725375 C11.995308,1.19020344 12.69492,1.18433219 13.392192,1.203125 C16.72266,1.29124188 19.691016,3.31564406 20.953128,6.35987516 C21.20742,6.97319219 20.916804,7.67697219 20.30508,7.93310547 C19.695708,8.18571359 18.991404,7.89785391 18.735936,7.28336984 C17.837112,5.11446031 15.71484,3.67164875 13.328904,3.609375 C12.65976,3.58940313 11.988276,3.59645344 11.314452,3.60350375 L10.27734,3.609375 L9.741792,3.60702891 C8.38476,3.59879953 7.114452,3.59174922 5.98242,4.08051875 C3.839064,5.00753859 2.4,7.23519672 2.4,9.625 C2.375388,12.1475681 4.075776,14.5479469 6.441792,15.3433689 C7.477728,15.6911442 8.658984,15.6711723 9.907032,15.6512005 C10.50234,15.6394459 11.083596,15.640625 11.681256,15.6288825 C12.997272,15.6030394 14.361336,15.5760052 15.704304,15.9895794 C19.175388,17.0564144 21.6,20.3767506 21.6,24.0625 C21.631644,27.3710938 19.61016,30.4916992 16.571484,31.8146675 C14.98242,32.507872 13.396872,32.4972966 11.857032,32.4867211 L11.32266,32.484375 L10.306644,32.4902462 C9.95976,32.4937714 9.612888,32.4961295 9.267192,32.4961295 Z" id="Shape"></path>
                </g>
                <g id="XMLID_1190_" transform="translate(28.800000, 0.000000)">
                    <path d="M1.2,45.71875 C0.536724,45.71875 0,45.1806283 0,44.515625 L0,1.203125 C0,0.538121719 0.536724,0 1.2,0 C1.863276,0 2.4,0.538121719 2.4,1.203125 L2.4,44.515625 C2.4,45.1806283 1.863276,45.71875 1.2,45.71875 Z" id="Shape"></path>
                </g>
                <g id="XMLID_1171_" transform="translate(12.000000, 50.531250)">
                    <path d="M30,26.46875 L6,26.46875 C5.428128,26.46875 4.935936,26.0634052 4.823436,25.5017864 L0.023436,1.43928641 C-0.046872,1.08562781 0.044532,0.719059687 0.271872,0.440596406 C0.500388,0.162145156 0.84024,0 1.2,0 L34.8,0 C35.15976,0 35.499612,0.162145156 35.728128,0.440596406 C35.955468,0.719059688 36.046884,1.08562781 35.976564,1.43928641 L31.176564,25.5017864 C31.064064,26.0634052 30.571872,26.46875 30,26.46875 Z M6.983208,24.0625 L29.016804,24.0625 L33.336336,2.40625 L2.663676,2.40625 L6.983208,24.0625 Z" id="Shape"></path>
                </g>
                <g id="XMLID_797_" transform="translate(16.800000, 54.140625)">
                    <path d="M3.693756,10.828125 C3.133596,10.828125 2.632032,10.4333436 2.518368,9.86116141 L1.078128,2.64241141 C0.948048,1.99032969 1.36992,1.35704078 2.019144,1.22662203 C2.67774,1.09267812 3.302352,1.51800687 3.431256,2.17008859 L4.871496,9.38883859 C5.001576,10.0409203 4.579704,10.6742092 3.93048,10.804628 C3.850776,10.8210747 3.771096,10.828125 3.693756,10.828125 Z" id="Shape"></path>
                </g>
                <g id="XMLID_905_" transform="translate(8.400000, 43.312500)">
                    <path d="M42,9.625 L1.2,9.625 C0.536724,9.625 0,9.08687828 0,8.421875 L0,1.203125 C0,0.538121719 0.536724,0 1.2,0 L42,0 C42.663276,0 43.2,0.538121719 43.2,1.203125 L43.2,8.421875 C43.2,9.08687828 42.663276,9.625 42,9.625 Z M2.4,7.21875 L40.8,7.21875 L40.8,2.40625 L2.4,2.40625 L2.4,7.21875 Z" id="Shape"></path>
                </g>
                <g id="XMLID_396_" transform="translate(28.800000, 33.687500)">
                    <path d="M1.2,12.03125 C0.536724,12.03125 0,11.4931283 0,10.828125 C0,4.7560975 7.906644,0 18,0 C18.663276,0 19.2,0.538121719 19.2,1.203125 C19.2,1.86812828 18.663276,2.40625 18,2.40625 C9.543744,2.40625 2.4,6.26352891 2.4,10.828125 C2.4,11.4931283 1.863276,12.03125 1.2,12.03125 Z" id="Shape"></path>
                </g>
                <g id="XMLID_926_" transform="translate(12.000000, 20.453125)">
                    <path d="M18,12.03125 C17.336724,12.03125 16.8,11.4931283 16.8,10.828125 C16.8,6.26352891 9.656244,2.40625 1.2,2.40625 C0.536724,2.40625 0,1.86812828 0,1.203125 C0,0.538121719 0.536724,0 1.2,0 C11.293356,0 19.2,4.75610953 19.2,10.828125 C19.2,11.4931283 18.663276,12.03125 18,12.03125 Z" id="Shape"></path>
                </g>
                <g id="XMLID_796_" transform="translate(45.600000, 30.078125)">
                    <path d="M7.2,9.625 C4.141404,9.625 1.361724,7.94015578 0.117192,5.33181688 C-0.038664,5.00283438 -0.038664,4.62216563 0.117192,4.29318313 C1.361724,1.68484422 4.141404,0 7.2,0 C10.258596,0 13.038276,1.68484422 14.282808,4.29318313 C14.438664,4.62216563 14.438664,5.00283437 14.282808,5.33181688 C13.038276,7.94015578 10.258596,9.625 7.2,9.625 Z M2.57226,4.8125 C3.522648,6.29056313 5.276952,7.21875 7.2,7.21875 C9.123048,7.21875 10.87734,6.29056313 11.82774,4.8125 C10.87734,3.33443688 9.123048,2.40625 7.2,2.40625 C5.276952,2.40625 3.52266,3.33443688 2.57226,4.8125 Z" id="Shape"></path>
                </g>
                <g id="XMLID_452_" transform="translate(0.000000, 16.843750)">
                    <path d="M7.2,9.625 C4.141404,9.625 1.361724,7.94015578 0.117192,5.33181688 C-0.038664,5.00283437 -0.038664,4.62216563 0.117192,4.29318313 C1.361724,1.68484422 4.141404,0 7.2,0 C10.258596,0 13.038276,1.68484422 14.282808,4.29318312 C14.438664,4.62216562 14.438664,5.00283437 14.282808,5.33181687 C13.038276,7.94015578 10.258596,9.625 7.2,9.625 Z M2.57226,4.8125 C3.52266,6.29056312 5.276952,7.21875 7.2,7.21875 C9.123048,7.21875 10.87734,6.29056312 11.82774,4.8125 C10.87734,3.33443687 9.123048,2.40625 7.2,2.40625 C5.276952,2.40625 3.52266,3.33443687 2.57226,4.8125 Z" id="Shape"></path>
                </g>
                <g id="XMLID_805_" transform="translate(15.600000, 69.781250)">
                    <path d="M27.35976,2.40625 L1.44024,2.40625 C0.776964,2.40625 0.24024,1.86812828 0.24024,1.203125 C0.24024,0.538121719 0.776964,0 1.44024,0 L27.35976,0 C28.023036,0 28.55976,0.538121719 28.55976,1.203125 C28.55976,1.86812828 28.023048,2.40625 27.35976,2.40625 Z" id="Shape"></path>
                </g>
            </g>
        </g>
    </g>
</svg>