<?xml version="1.0" encoding="UTF-8"?>
<svg width="46px" height="46px" viewBox="0 0 46 46" version="1.1" xmlns="http://www.w3.org/2000/svg" xmlns:xlink="http://www.w3.org/1999/xlink">
    <!-- Generator: Sketch 52.2 (67145) - http://www.bohemiancoding.com/sketch -->
    <title>logo-react-native copy 2</title>
    <desc>Created with Sketch.</desc>
    <defs>
        <rect id="path-1" x="0" y="0" width="46" height="46" rx="23"></rect>
    </defs>
    <g id="Page-1" stroke="none" stroke-width="1" fill="none" fill-rule="evenodd">
        <g id="Development" transform="translate(-87.000000, -9115.000000)">
            <g id="logo-react-native-copy-2" transform="translate(87.000000, 9115.000000)">
                <mask id="mask-2" fill="white">
                    <use xlink:href="#path-1"></use>
                </mask>
                <use id="Mask" fill="#ECECEC" fill-rule="nonzero" xlink:href="#path-1"></use>
                <g mask="url(#mask-2)" fill-rule="nonzero">
                    <g transform="translate(4.443848, 11.140137)">
                        <path d="M33.6921511,37.1123047 L4.07507659,37.1123047 C2.18307675,37.1123047 0.654923024,35.584151 0.654923024,33.6921511 L0.654923024,4.07507659 C0.654923024,2.18307675 2.18307675,0.654923024 4.07507659,0.654923024 L33.6921511,0.654923024 C35.584151,0.654923024 37.1123047,2.18307675 37.1123047,4.07507659 L37.1123047,33.6921511 C37.1123047,35.584151 35.584151,37.1123047 33.6921511,37.1123047 Z" id="Shape" fill="#61DAFB"></path>
                        <circle id="Oval" fill="#FFFFFF" cx="18.9199985" cy="18.9199985" r="2.3286152"></circle>
                        <path d="M27.7978439,15.0632295 C27.3612286,14.9176911 26.851844,14.6993834 26.4152286,14.6266142 C26.5607671,14.1172296 26.6335363,13.6078451 26.7063055,13.1712297 C27.1429209,10.4787684 26.6335363,8.58676854 25.3236903,7.78630706 C24.9598441,7.56799939 24.5232288,7.42246094 24.0138442,7.42246094 C22.5584597,7.42246094 20.7392291,8.51399931 18.9199985,10.2604607 C17.1007678,8.44123009 15.2815372,7.42246094 13.8261527,7.42246094 C13.3167682,7.42246094 12.8801528,7.49523016 12.5163067,7.78630706 C11.2064606,8.51399931 10.6970761,10.4787684 11.1336914,13.1712297 C11.2064606,13.6078451 11.3519991,14.1172296 11.4247683,14.6266142 C10.9153837,14.7721527 10.4787684,14.9176911 10.042153,15.0632295 C7.49523016,16.0819987 6.11261489,17.3918447 6.11261489,18.9199985 C6.11261489,20.4481522 7.49523016,21.7579982 10.042153,22.7767674 C10.4787684,22.9223058 10.988153,23.1406135 11.4247683,23.2133827 C11.2792299,23.7227673 11.2064606,24.2321519 11.1336914,24.6687672 C10.6970761,27.3612286 11.2064606,29.2532284 12.5163067,30.0536899 C12.8801528,30.2719975 13.3167682,30.417536 13.8261527,30.417536 C15.2815372,30.417536 17.1007678,29.3259976 18.9199985,27.5795362 C20.7392291,29.3987669 22.5584597,30.417536 24.0138442,30.417536 C24.5232288,30.417536 24.9598441,30.3447668 25.3236903,30.0536899 C26.6335363,29.3259976 27.1429209,27.3612286 26.7063055,24.6687672 C26.6335363,24.2321519 26.4879979,23.7227673 26.4152286,23.2133827 C26.9246132,23.0678443 27.3612286,22.9223058 27.7978439,22.7767674 C30.3447668,21.7579982 31.727382,20.4481522 31.727382,18.9199985 C31.727382,17.3918447 30.3447668,16.0819987 27.7978439,15.0632295 Z M24.7415365,8.80507621 C25.6147672,9.31446078 25.9058441,10.8426145 25.5419979,12.952922 C25.4692287,13.3895374 25.3964595,13.8261527 25.250921,14.3355373 C24.1593827,14.1172296 23.0678443,13.898922 21.8307675,13.8261527 C21.1030752,12.8073836 20.4481522,11.9341529 19.7204599,11.1336914 C21.2486137,9.60553768 22.7767674,8.58676854 24.0138442,8.58676854 C24.3049211,8.58676854 24.595998,8.65953776 24.7415365,8.80507621 Z M22.4856905,20.9575368 C22.1218444,21.6124598 21.685229,22.2673828 21.2486137,22.9223058 C20.5209214,22.9950751 19.7204599,22.9950751 18.9199985,22.9950751 C18.119537,22.9950751 17.3918447,22.9950751 16.5913833,22.9223058 C16.1547679,22.2673828 15.7181526,21.6124598 15.3543064,20.9575368 C14.9904603,20.3026137 14.6266142,19.5749215 14.2627681,18.9199985 C14.6266142,18.2650754 14.9904603,17.5373832 15.3543064,16.8824602 C15.7181526,16.2275371 16.1547679,15.5726141 16.5913833,14.9176911 C17.3190755,14.8449219 18.119537,14.8449219 18.9199985,14.8449219 C19.7204599,14.8449219 20.4481522,14.8449219 21.2486137,14.9176911 C21.685229,15.5726141 22.1218444,16.2275371 22.4856905,16.8824602 C22.8495366,17.5373832 23.2133827,18.2650754 23.5772289,18.9199985 C23.2133827,19.5749215 22.8495366,20.3026137 22.4856905,20.9575368 Z M24.1593827,20.3026137 C24.4504596,21.030306 24.7415365,21.685229 24.9598441,22.4129213 C24.2321519,22.5584597 23.5044596,22.7039982 22.7767674,22.7767674 C22.9950751,22.4129213 23.286152,21.9763059 23.5044596,21.5396906 C23.7227673,21.1030752 23.941075,20.7392291 24.1593827,20.3026137 Z M18.9199985,25.8330748 C18.4106139,25.3236903 17.9739985,24.7415365 17.5373832,24.1593827 C17.9739985,24.1593827 18.4833831,24.2321519 18.9199985,24.2321519 C19.3566138,24.2321519 19.8659984,24.2321519 20.3026137,24.1593827 C19.8659984,24.7415365 19.429383,25.3236903 18.9199985,25.8330748 Z M15.1359988,22.7767674 C14.3355373,22.7039982 13.6078451,22.5584597 12.952922,22.4129213 C13.1712297,21.7579982 13.3895374,21.030306 13.7533835,20.3026137 C13.9716912,20.7392291 14.1899989,21.1758444 14.4810758,21.5396906 C14.6266142,21.9763059 14.8449219,22.340152 15.1359988,22.7767674 Z M13.6806143,17.5373832 C13.3895374,16.8096909 13.0984605,16.1547679 12.8801528,15.4270757 C13.6078451,15.2815372 14.3355373,15.1359988 15.0632295,15.0632295 C14.8449219,15.4270757 14.553845,15.863691 14.3355373,16.3003064 C14.1172296,16.7369217 13.898922,17.1007678 13.6806143,17.5373832 Z M18.9199985,12.0069221 C19.429383,12.5163067 19.8659984,13.0984605 20.3026137,13.6806143 C19.8659984,13.6806143 19.3566138,13.6078451 18.9199985,13.6078451 C18.4833831,13.6078451 17.9739985,13.6078451 17.5373832,13.6806143 C17.9739985,13.0984605 18.4106139,12.5163067 18.9199985,12.0069221 Z M23.5044596,16.3003064 L22.7767674,15.0632295 C23.5772289,15.1359988 24.3049211,15.2815372 24.9598441,15.4270757 C24.7415365,16.0819987 24.5232288,16.8096909 24.1593827,17.5373832 C23.941075,17.1007678 23.7227673,16.7369217 23.5044596,16.3003064 Z M12.297999,12.952922 C11.9341529,10.7698453 12.2252298,9.31446078 13.0984605,8.80507621 C13.3167682,8.65953776 13.5350758,8.58676854 13.8261527,8.58676854 C15.0632295,8.58676854 16.5913833,9.60553768 18.119537,11.1336914 C17.3918447,11.9341529 16.6641525,12.8073836 16.0092295,13.8261527 C14.8449219,13.898922 13.6806143,14.1172296 12.5890759,14.3355373 C12.4435375,13.8261527 12.3707682,13.3895374 12.297999,12.952922 Z M7.20415326,18.9199985 C7.20415326,17.9739985 8.36846086,16.9552294 10.4059992,16.1547679 L11.7158452,15.7181526 C12.0796913,16.7369217 12.4435375,17.8284601 12.952922,18.9199985 C12.4435375,20.0115368 12.0069221,21.1030752 11.7158452,22.1218444 C8.95061466,21.3213829 7.20415326,20.0843061 7.20415326,18.9199985 Z M13.0984605,29.0349207 C12.2252298,28.5255362 11.9341529,26.9973824 12.297999,24.8870749 C12.3707682,24.4504596 12.4435375,24.0138442 12.5890759,23.5044596 C13.6806143,23.7227673 14.7721527,23.941075 16.0092295,24.0138442 C16.7369217,25.0326134 17.3918447,25.9058441 18.119537,26.7063055 C16.5913833,28.2344593 15.0632295,29.2532284 13.8261527,29.2532284 C13.5350758,29.2532284 13.2439989,29.1804592 13.0984605,29.0349207 Z M25.5419979,24.8870749 C25.9058441,27.0701517 25.6147672,28.5255362 24.7415365,29.0349207 C24.5232288,29.1804592 24.3049211,29.2532284 24.0138442,29.2532284 C22.7767674,29.2532284 21.2486137,28.2344593 19.7204599,26.7063055 C20.4481522,25.9058441 21.1758444,25.0326134 21.8307675,24.0138442 C22.9950751,23.941075 24.1593827,23.7227673 25.250921,23.5044596 C25.3964595,24.0138442 25.4692287,24.4504596 25.5419979,24.8870749 Z M27.3612286,21.685229 L26.0513825,22.1218444 C25.6875364,21.1030752 25.3236903,20.0115368 24.8143057,18.9199985 C25.3236903,17.8284601 25.7603056,16.7369217 26.0513825,15.7181526 C28.8893823,16.518614 30.5630744,17.7556909 30.5630744,18.9199985 C30.6358437,19.8659984 29.3987669,20.8847675 27.3612286,21.685229 Z" id="Shape" fill="#FFFFFF"></path>
                    </g>
                </g>
            </g>
        </g>
    </g>
</svg>