<?xml version="1.0" encoding="UTF-8" standalone="no"?>
<svg width="46px" height="46px" viewBox="0 0 46 46" version="1.1" xmlns="http://www.w3.org/2000/svg" xmlns:xlink="http://www.w3.org/1999/xlink">
    <!-- Generator: Sketch 50 (54983) - http://www.bohemiancoding.com/sketch -->
    <title>Group 6-circle</title>
    <desc>Created with Sketch.</desc>
    <defs>
        <rect id="path-1" x="0" y="0" width="46" height="46" rx="23"></rect>
    </defs>
    <g id="Page-1" stroke="none" stroke-width="1" fill="none" fill-rule="evenodd">
        <g id="Development" transform="translate(-87.000000, -1657.000000)">
            <g id="Group-6" transform="translate(87.000000, 1657.000000)">
                <mask id="mask-2" fill="white">
                    <use xlink:href="#path-1"></use>
                </mask>
                <use id="Rectangle-Copy-2-Copy-26" fill="#ECECEC" fill-rule="nonzero" xlink:href="#path-1"></use>
                <g id="logo-webpack-copy" mask="url(#mask-2)" fill-rule="nonzero">
                    <g transform="translate(2.000000, 7.000000)" id="Shape">
                        <polygon fill="#FFFFFF" points="20.5 0.0076137931 41 11.4925448 41 34.4698621 20.5 45.9547931 0 34.4698621 0 11.4925448"></polygon>
                        <path d="M37.3409102,33.6731103 L21.1808242,42.7366966 L21.1808242,35.688069 L31.2528906,30.1947172 L37.3409102,33.6731103 Z M38.4471094,32.6847448 L38.4471094,13.7451172 L32.5370234,17.1237379 L32.5370234,29.3058069 L38.4471094,32.6847448 Z M3.59710938,33.6729517 L19.7573555,42.7292414 L19.7573555,35.6804552 L9.68528906,30.1947172 L3.59710938,33.6731103 L3.59710938,33.6729517 Z M2.49091016,32.6847448 L2.49091016,13.7451172 L8.40115625,17.1237379 L8.40115625,29.3058069 L2.49091016,32.6847448 Z M3.17958203,12.5192966 L19.7573555,3.23316552 L19.7573555,10.052269 L9.13611328,15.8366897 L9.05091016,15.8826897 L3.17958203,12.5191379 L3.17958203,12.5192966 Z M37.7509102,12.5192966 L21.1808242,3.2330069 L21.1808242,10.0521103 L31.7943789,15.8441448 L31.8794219,15.8901448 L37.7509102,12.5189793 L37.7509102,12.5192966 Z" fill="#8ED6FB"></path>
                        <path d="M19.7573555,34.0791793 L9.82446484,28.6622828 L9.82446484,17.9436483 L19.7573555,23.621 L19.7573555,34.0791793 Z M21.1808242,34.0791793 L31.1137148,28.6700552 L31.1137148,17.9436483 L21.1808242,23.621 L21.1808242,34.0791793 Z M10.4897539,16.7024414 L20.4690898,11.2703172 L30.440418,16.7024414 L20.4690898,22.4027931 L10.4897539,16.7024414 Z" fill="#1C78C0"></path>
                    </g>
                </g>
            </g>
        </g>
    </g>
</svg>