<?xml version="1.0" encoding="UTF-8" standalone="no"?>
<svg width="46px" height="46px" viewBox="0 0 46 46" version="1.1" xmlns="http://www.w3.org/2000/svg" xmlns:xlink="http://www.w3.org/1999/xlink">
    <!-- Generator: Sketch 50 (54983) - http://www.bohemiancoding.com/sketch -->
    <title>Group 14-circle</title>
    <desc>Created with Sketch.</desc>
    <defs>
        <rect id="path-1" x="0" y="0" width="46" height="46" rx="23"></rect>
    </defs>
    <g id="Page-1" stroke="none" stroke-width="1" fill="none" fill-rule="evenodd">
        <g id="Development" transform="translate(-87.000000, -2515.000000)">
            <g id="Group-14" transform="translate(87.000000, 2515.000000)">
                <mask id="mask-2" fill="white">
                    <use xlink:href="#path-1"></use>
                </mask>
                <use id="Rectangle-Copy-2-Copy-39" fill="#ECECEC" fill-rule="nonzero" xlink:href="#path-1"></use>
                <g id="logo-wordpress" mask="url(#mask-2)" fill="#464342" fill-rule="nonzero">
                    <g transform="translate(0.000000, 9.000000)" id="Shape">
                        <path d="M3.25665625,22.9101562 C3.25665625,30.6899062 7.77759375,37.4129141 14.3336719,40.5989531 L4.95829688,14.9115469 C3.83441807,17.4282591 3.25455926,20.1539017 3.25665625,22.9101562 Z M36.1791797,21.9182812 C36.1791797,19.4894453 35.3066172,17.8072109 34.5583984,16.4980078 C33.5620313,14.8790234 32.6281953,13.5080078 32.6281953,11.8890234 C32.6281953,10.0822656 33.9984922,8.40039062 35.9286953,8.40039062 C36.0158438,8.40039062 36.0983203,8.41117187 36.1833125,8.41620312 C32.6865938,5.21255469 28.0278359,3.25665625 22.9110547,3.25665625 C16.0446563,3.25665625 10.0037422,6.77960937 6.48941406,12.1156094 C6.95049219,12.1294453 7.38497656,12.1389687 7.75423438,12.1389687 C9.80985938,12.1389687 12.992125,11.8897422 12.992125,11.8897422 C14.0517422,11.8272109 14.176625,13.3833047 13.1182656,13.5087266 C13.1182656,13.5087266 12.0534375,13.6339687 10.8685781,13.6959609 L18.02625,34.9851562 L22.3274297,22.0853906 L19.2651953,13.6954219 C18.2068359,13.6334297 17.2041797,13.5081875 17.2041797,13.5081875 C16.1451016,13.4460156 16.2692656,11.8266719 17.3283438,11.8892031 C17.3283438,11.8892031 20.5742188,12.1386094 22.5053203,12.1386094 C24.5609453,12.1386094 27.7433906,11.8892031 27.7433906,11.8892031 C28.8035469,11.8266719 28.92825,13.3827656 27.8695313,13.5081875 C27.8695313,13.5081875 26.8025469,13.6334297 25.6198438,13.6954219 L32.7227109,34.8232578 L34.6831016,28.2722109 C35.5326641,25.5537188 36.1793594,23.6012344 36.1793594,21.9184609 L36.1791797,21.9182812 Z M23.255875,24.6294063 L17.3588906,41.7649453 C19.1618061,42.295948 21.0315686,42.5655898 22.9110547,42.5656328 C25.1997344,42.5656328 27.3946172,42.1699609 29.4378437,41.4515703 C29.3832895,41.3656125 29.336448,41.2749961 29.2978672,41.1807812 L23.255875,24.6294062 Z M40.1569219,13.4806953 C40.241375,14.1067266 40.2893516,14.7787578 40.2893516,15.5016406 C40.2893516,17.4961719 39.9168594,19.7381328 38.7948906,22.5414375 L32.7913516,39.89925 C38.6344297,36.4918359 42.5645547,30.1614453 42.5645547,22.9106953 C42.5649141,19.4935781 41.6919922,16.2802266 40.1567422,13.4806953 L40.1569219,13.4806953 Z M22.9110547,0 C10.278125,0 0,10.2774062 0,22.9101562 C0,35.5445234 10.278125,45.8215703 22.9110547,45.8215703 C35.5434453,45.8215703 45.8230078,35.5445234 45.8230078,22.9101562 C45.8228281,10.2774062 35.543625,0 22.9112344,0 L22.9110547,0 Z M22.9110547,44.7714766 C10.8576172,44.7714766 1.05045312,34.9644922 1.05045312,22.9101563 C1.05045312,10.8567188 10.8570781,1.05045313 22.9110547,1.05045313 C34.9641328,1.05045313 44.7703984,10.8567188 44.7703984,22.9101563 C44.7703984,34.9644922 34.9641328,44.7714766 22.9110547,44.7714766 Z"></path>
                    </g>
                </g>
            </g>
        </g>
    </g>
</svg>