<?xml version="1.0" encoding="utf-8"?>
<!-- Generator: Adobe Illustrator 22.1.0, SVG Export Plug-In . SVG Version: 6.00 Build 0)  -->
<svg version="1.1" xmlns="http://www.w3.org/2000/svg" xmlns:xlink="http://www.w3.org/1999/xlink" x="0px" y="0px"
	 viewBox="0 0 1210.3 987.8" style="enable-background:new 0 0 1210.3 987.8;" xml:space="preserve">
<style type="text/css">
	.st0{opacity:0.27;fill:#B9C3FE;}
	.st1{fill:#674ACC;}
	.st2{fill:#421A8C;}
	.st3{fill:url(#SVGID_1_);}
	.st4{fill:#FFFFFF;}
	.st5{opacity:0.4;fill:#B9C3FE;}
	.st6{fill:url(#SVGID_2_);}
	.st7{fill:url(#SVGID_3_);}
	.st8{fill:url(#SVGID_4_);}
	.st9{clip-path:url(#SVGID_6_);}
	.st10{fill:#FF8F61;}
	.st11{fill:url(#SVGID_7_);}
	.st12{fill:url(#SVGID_8_);}
	.st13{fill:#30036E;}
	.st14{fill:url(#SVGID_9_);}
	.st15{fill:#EE5916;}
	.st16{fill:url(#SVGID_10_);}
	.st17{fill:url(#SVGID_11_);}
	.st18{fill:url(#SVGID_12_);}
	.st19{fill:url(#SVGID_13_);}
	.st20{fill:url(#SVGID_14_);}
	.st21{fill:#00A26C;}
	.st22{fill:url(#SVGID_15_);}
	.st23{fill:#9AFFCA;}
	.st24{fill:url(#SVGID_16_);}
	.st25{fill:url(#SVGID_17_);}
	.st26{fill:url(#SVGID_18_);}
	.st27{opacity:0.79;fill:#F0F9FA;}
	.st28{fill:url(#SVGID_19_);}
	.st29{fill:url(#SVGID_20_);}
</style>
<g id="BG_x27_">
	<path class="st0" d="M979.8,84.1c69.6,17.5,119.8,92.1,109.9,163.2c-9.3,66.3-62.9,123.9-56.9,190.5c4.4,48.8,40,88.5,76,121.8
		s75.7,66,93.2,111.8c22.3,58.4-1,130.9-53.2,165.3c-30,19.9-66.6,27.3-98.1,44.7c-37,20.3-66.7,53.8-106.7,67
		c-54.3,17.9-112.4-5.5-168.8-14.3c-160.4-25.1-320.1,68.9-481.5,51.5c-24.4-2.6-49.8-8.4-68.3-24.6c-18.5-16.2-27.5-45.4-14.4-66.2
		c11.7-18.5,36-24.8,50.4-41.3c25-28.7,8.5-76.9-22.9-98.6c-31.3-21.7-71.4-24.8-109.2-29.1c-37.9-4.3-78.4-12-104.6-39.7
		c-40.3-42.4-27.4-116.4,13.7-158s101.3-57.6,159.3-66c38.6-5.6,80.9-10,108.4-37.7c26.3-26.5,31.2-66.7,37.6-103.4
		s18.7-77.3,51.7-94.7c24.2-12.8,56.6-11.2,74.4-32c18-21,11-52.5,14-79.9c6.6-60.8,67.2-104.3,127.8-112.4
		C671.9-5.9,742,9.4,795.6,38.3c23.7,12.8,47.2,26.4,73.6,32.9C905.5,80.2,943.5,75,979.8,84.1z"/>
	<path class="st0" d="M931.6,151.2c53.2-1.7,117.9,26.3,101.8,90.4c-6.8,27.2-24.1,51-40.8,73c-17.6,23.2-36.9,45.3-53.2,69.6
		c-14.2,21.3-26.5,45.6-26.4,71.7c0.1,26.8,13.8,50.2,31.9,69.1c36.2,37.9,83.9,62.7,120.4,100.3c19.1,19.6,33.5,42.7,37.1,70.2
		c3.7,28-4.2,57-28.7,73.2c-22.5,14.8-51.5,16.5-77.4,19.7c-28,3.5-53.8,12-80.7,20.2c-56.6,17.2-112.2,12.2-168.7-2.6
		c-47.3-12.4-93.4-21.4-142.2-11.9c-49.7,9.7-91.2,35.2-129.2,67.7c-16.8,14.4-33.2,29.4-50.5,43.2c-20.2,16.1-44.1,32.7-70.8,34.4
		c-27.8,1.8-49.9-17.2-57.2-43.3c-3.1-11.1-3.9-23.8,1.4-34.3c6.3-12.6,19.9-18.9,29.3-28.8c19.4-20.4,19.1-52.4,10-77.5
		c-8.7-24-26.6-40.8-49.3-51.8c-41.9-20.3-96.3-20.6-129.3-57.1c-40.1-44.3-15.9-111.8,28.6-142.3c19.2-13.2,41.3-22.2,63.6-28.5
		c22.7-6.4,47.1-8.3,68.9-17.7c46.4-19.9,58.7-69.8,85.9-107.5c15.6-21.6,36-38.6,61.4-47.3c24.2-8.3,54.4-10.5,69.8-33.9
		c15-22.8,6.7-51.6,6.5-76.8c-0.2-23.5,5.7-47.2,18.4-67.2c32-50.8,95.8-57,147.7-35.5c47,19.5,77.9,66,131.8,68.6
		C871.8,160,901.5,152.2,931.6,151.2z"/>
</g>
<g id="_x40_krzaki">
	<g>
		<g>
			<path class="st1" d="M813.2,707.1c0,0,47.6,104.4,76.2,104.6c59.3,0.4,123.5-132,85.6-192.8c-25.6-41.1-7-105.1,7.8-142.2
				c7.3-18.4,2.8-39.4-11.5-53l-24.5-23.3c-4.4-4.2-2.5-11.6,3.4-13.1l16.3-4.4c16.3-4.3,29.1-16.7,33.9-32.8
				c7.2-24.4,13.5-62,0-97.3c-22.5-58.5-46.4-96.9-74.4,0c-28.1,96.9-111,131.4-113.1,240.6L813.2,707.1z"/>
			<path class="st2" d="M858.2,622.3c1.9,31.5-6.6,63.3-1.5,94.5c5.4,33.6,27.4,64,57.4,79.9c-16-2.8-30.4-11.7-42.2-22.8
				c-11.8-11.1-21.4-24.3-30.9-37.5c-7.5-10.4-15.2-21.3-17.3-33.9c-2.1-12.5,1.5-25.2,2.6-37.8c2.1-22.8-3.9-45.5-8.9-67.8
				c-1.6-7.3-4.5-50.9-4.5-68.7c6.6,0.9,21.4,22.6,24.6,27.9c5.7,9.4,10.3,19.5,13.7,29.9C855.1,597.7,857.5,609.9,858.2,622.3z"/>
			<linearGradient id="SVGID_1_" gradientUnits="userSpaceOnUse" x1="819.7342" y1="729.6304" x2="644.7342" y2="350.6303">
				<stop  offset="0" style="stop-color:#674ACC"/>
				<stop  offset="1" style="stop-color:#BE81FF"/>
			</linearGradient>
			<path class="st3" d="M862.6,753.9c-29.2-40,4.3-126.1-36.9-196.4c-41.2-70.3-80.6-37.7-93.4-134.2
				c-12.9-96.4-83.2-93.9-60.9-47.6c5.8,12,4,32.6,1.3,48.2c-2.3,13.1,4.1,26.1,15.6,32.5l0,0c4.6,2.6,4.7,9.2,0.2,11.9l-14.8,8.7
				c-9.2,5.5-13.4,16.6-10,26.8l0,0c13.7,40.8,88.3,51,54,123.9c-34.3,72.9,66.4,165,118,180.9c18.5,5.7,63.3,9.4,76.9-9.3
				C919.7,789.7,891.7,793.9,862.6,753.9z"/>
		</g>
		<g>
			<path class="st4" d="M902.3,781.1c-0.3,0-0.5-0.1-0.8-0.3c-21.2-15.2-24.8-44.3-26.5-70.4c-6.6-102.2-14.1-218,30.3-319.2
				c5.4-12.3,11.6-24.4,17.6-36.1c6.5-12.7,13.2-25.8,18.9-39.1c13-30.5,17.9-56.9,14.9-80.6c-0.1-0.7,0.4-1.4,1.2-1.5
				c0.7-0.1,1.4,0.4,1.5,1.2c3,24.2-1.9,51.1-15.1,82c-5.7,13.4-12.5,26.6-19,39.3c-6,11.7-12.2,23.8-17.5,36
				c-44.2,100.6-36.7,216-30.1,317.9c1.6,25.5,5.1,53.8,25.3,68.3c0.6,0.4,0.7,1.3,0.3,1.9C903.2,780.9,902.8,781.1,902.3,781.1z"/>
		</g>
		<g>
			<path class="st4" d="M888.6,806.5c-0.2,0-0.4,0-0.5-0.1c-48.7-21.3-85.6-66.8-96.3-118.9c-3.4-16.3-4.3-33.4-5.2-49.9
				c-1.4-26.4-2.9-53.8-14.5-77.7c-6.3-13-15.5-24.6-24.4-35.9c-10.9-13.8-22.1-28.2-28.2-45c-4-11.1-5.6-23-7.2-34.5
				c-0.7-4.9-1.4-10-2.2-14.9c-3.6-20.4-10.4-34.6-20.8-43.5c-0.6-0.5-0.6-1.3-0.2-1.9c0.5-0.6,1.3-0.6,1.9-0.2
				c10.9,9.3,18,24,21.7,45c0.9,5,1.6,10.1,2.2,15c1.5,11.3,3.1,23.1,7.1,33.9c5.9,16.4,17.1,30.6,27.8,44.2
				c9,11.4,18.3,23.2,24.7,36.4c11.8,24.4,13.3,52,14.8,78.7c0.9,16.4,1.8,33.4,5.1,49.5c10.5,51.2,46.8,96,94.7,116.9
				c0.7,0.3,1,1.1,0.7,1.8C889.6,806.2,889.1,806.5,888.6,806.5z"/>
		</g>
	</g>
	<path class="st1" d="M798.1,449.4c4.2-51.6,49.9-74.9,53.6-131.6c3.8-56.7-30.2-50.5-1-113.3c29.2-62.8-9.9-85.3-15.6-49.7
		c-7.5,46.2-38.8,38.9-52.5,75l0,0c-7.8,29.4,29.5,61.2-16.9,93.5c-46.4,32.4-27.2,126-4.7,153.4c8,9.8,27.5,37.6,42,30.9
		C810.5,504.1,795.4,483.5,798.1,449.4z"/>
	<path class="st5" d="M928.3,849.4c-35.6,4.7-71.2,9.6-107.1,10.5c-58.6,1.4-117.4-7.8-175.7-18.7c-20.3-3.8-40.7-7.9-61.1-6.9
		c-20.4,1-40.9,7.4-55.5,22.2c-5.9,6-11,14.5-9.1,23.4c0.9,4.1,3.2,7.8,5.8,11c17.8,21.8,48.4,23.8,73.1,16s46.6-23.4,71.3-31.2
		c41.5-13.2,87.1-3.7,129.9,9.3c42.8,13.1,85.5,29.8,129.4,31c20.7,0.5,45.4-8.6,45.7-35.4C975.3,852.8,947.5,846.9,928.3,849.4z"/>
	<g>
		<path class="st4" d="M872.6,537.4l-0.4-2c17.3-3.2,34.6-12,49.9-25.5c12.6-11.1,24.3-25.6,35.5-44.2l1.7,1
			c-11.4,18.8-23.1,33.4-35.9,44.7C907.9,525.1,890.3,534.1,872.6,537.4z"/>
	</g>
	<g>
		<path class="st4" d="M785.4,464.9c-4.6-14.2-9.2-29.4-11.2-44.8c-2.3-17.2-1-32.6,3.7-45.9c4.8-13.4,13.2-25.1,21.4-36.4
			c1.6-2.3,3.3-4.5,4.9-6.8c9.1-12.9,18.5-28.3,19.7-45.2c0.6-8.5-1-17.2-2.5-25.6c-0.8-4.3-1.6-8.6-2.1-13
			c-1.4-11.5-0.8-27.4,9.7-37.4l1.4,1.5c-5.5,5.2-11.5,15.6-9.1,35.7c0.5,4.3,1.3,8.7,2.1,12.9c1.5,8.5,3.1,17.3,2.5,26.1
			c-1.2,17.4-10.8,33.1-20.1,46.2c-1.6,2.3-3.2,4.5-4.9,6.8c-8.1,11.2-16.5,22.8-21.2,35.9c-4.6,13-5.9,28.1-3.6,45
			c2,15.2,6.6,30.3,11.1,44.4L785.4,464.9z"/>
	</g>
	<g>
		<path class="st4" d="M879.1,481.7c-19.2-16.5-33.8-38.9-41.2-63l1.9-0.6c7.2,23.8,21.7,45.9,40.6,62.1L879.1,481.7z"/>
	</g>
	<linearGradient id="SVGID_2_" gradientUnits="userSpaceOnUse" x1="886.1429" y1="375.2025" x2="995.6827" y2="375.2025">
		<stop  offset="0" style="stop-color:#30036E"/>
		<stop  offset="1" style="stop-color:#421A8C"/>
	</linearGradient>
	<path class="st6" d="M935.5,359.5c-18.7,35.4-40.4,70.2-48.3,109.4c-1.3,6.3-2,13.5,2,18.5c4.8,6,14,5.9,21.4,4
		c14.2-3.6,27.1-11.9,36.3-23.2c4.4-5.4,8.1-11.7,8.2-18.6c0.3-10.5-7.3-19.3-13.6-27.6c-6.3-8.4-11.9-19.4-7.5-28.9
		c4.3-9.1,15.4-12,24.5-16.2c23.6-10.8,39.1-37.2,37-63.1c-0.8-9.7-3.8-19-6.8-28.3c-2.3-7.1-4.4-28.3-14.6-27.6
		c-10.4,0.7-8.1,20.1-9.6,27.3C959.6,309.9,949.6,338.4,935.5,359.5z"/>
	<linearGradient id="SVGID_3_" gradientUnits="userSpaceOnUse" x1="880.6694" y1="620.9539" x2="964.4915" y2="620.9539">
		<stop  offset="0" style="stop-color:#30036E"/>
		<stop  offset="1" style="stop-color:#421A8C"/>
	</linearGradient>
	<path class="st7" d="M883.5,555.7c-2.8,6.7-2.9,14.2-2.9,21.5c0,42.1,1.6,84.2,4.6,126.2c0.8,11.4,2.9,24.7,12.8,30.4
		c6.9,4,15.8,2.8,22.8-1c7-3.8,12.3-10,17.3-16.2c14.3-18,27.3-40.7,21.3-62.9c-4.4-16.4-18.3-29.1-21.9-45.7
		c-4-18.1,5.1-35.2,12.6-51c4.4-9.3,21.4-40.7,10.8-50c-7.8-6.9-31.9,16.1-40,20.2C907.3,534.2,889.9,540.1,883.5,555.7z"/>
</g>
<g id="_x40_krzaki_x5F_2">
	<g>
		<linearGradient id="SVGID_4_" gradientUnits="userSpaceOnUse" x1="531.2167" y1="813.0441" x2="432.7035" y2="194.1237">
			<stop  offset="0" style="stop-color:#674ACC"/>
			<stop  offset="1" style="stop-color:#BE81FF"/>
		</linearGradient>
		<path class="st8" d="M450.2,819c-28.5-9.3-53.1-35.6-48.4-63.5c3.8-22.4,24.8-40,27.4-62.6c4.9-43.6-59-71.6-59.7-115.4
			c-0.6-42.1,65.1-62.6,72.8-104.1c4.2-22.6-16.2-49.4-16.7-72.3c-0.5-22.9,20.7-50,43.3-41.2c27.1,10.7,13.2,51.3,29.3,74.3
			c16.6,23.6,60.8,22.6,71.2,49.1c10.9,28.1-28.2,54.9-23.4,84.4c3.4,20.6,25.9,32.3,43.2,45.4c36.3,27.7,55,74.2,47.3,117.4
			C621.3,815.8,530.4,845.1,450.2,819z"/>
		<g>
			<defs>
				<path id="SVGID_5_" d="M450.2,819c-28.5-9.3-53.1-35.6-48.4-63.5c3.8-22.4,24.8-40,27.4-62.6c4.9-43.6-59-71.6-59.7-115.4
					c-0.6-42.1,65.1-62.6,72.8-104.1c4.2-22.6-16.2-49.4-16.7-72.3c-0.5-22.9,20.7-50,43.3-41.2c27.1,10.7,13.2,51.3,29.3,74.3
					c16.6,23.6,60.8,22.6,71.2,49.1c10.9,28.1-28.2,54.9-23.4,84.4c3.4,20.6,25.9,32.3,43.2,45.4c36.3,27.7,55,74.2,47.3,117.4
					C621.3,815.8,530.4,845.1,450.2,819z"/>
			</defs>
			<clipPath id="SVGID_6_">
				<use xlink:href="#SVGID_5_"  style="overflow:visible;"/>
			</clipPath>
			<g class="st9">
				<path class="st4" d="M537.4,668.7l-0.2-1.9c-50.6,4.9-103.1-6.3-148-31.4l-0.8,1.6c38.2,21.4,82,32.7,125.5,32.7
					C521.7,669.9,529.6,669.5,537.4,668.7z"/>
				<path class="st4" d="M659.3,689.2c-23.8,44.6-59.6,75.7-98.1,85.5c-5.3,1.3-10.8,2.3-16.4,2.9c0.2-6.1,0.3-12.1,0.3-18
					c43.2-10.9,80.2-46.2,94.7-90.5l-1.7-0.6c-14.3,43.6-50.6,78.3-93.1,89.2c0.4-40.9-1.6-78.3-5.9-113.4
					c24.9-7.6,46.1-23.6,58.4-44.5l-1.5-1c-12.1,20.5-32.8,36.1-57.2,43.6c-0.8-6.6-1.8-13.2-2.8-19.7c22.8-5.5,43.1-20.5,55.7-41.3
					l-1.5-1c-12.4,20.4-32.2,35.1-54.5,40.5c-1.7-10.4-3.5-20.7-5.6-30.8c-3.7-17.8-8.2-35.3-13.4-52.6
					c29.6-14.3,53.5-40.8,65.6-72.7l-1.6-0.7c-12,31.3-35.4,57.4-64.5,71.6c-3.4-11.3-7-22.6-10.9-33.7c21.2-8.4,39.7-24,51.9-44.2
					l-1.5-1c-12,19.9-30.2,35.2-51,43.5c-1.5-4.3-3.1-8.7-4.7-13c16.8-6.9,30.9-21.9,37.7-40.4l-1.6-0.7
					c-6.6,18-20.4,32.6-36.7,39.4c-25.3-68.1-58.7-132.9-91.3-196.2l-1.5,0.9c32.6,63.3,66,128,91.2,196c-1.2,0.5-2.4,0.9-3.7,1.2
					c-18.7,5.5-37.5,0.7-49.9-4.4c-16-6.5-30.6-16.6-44.8-26.4l-1,1.6c14.2,9.8,28.9,20,45.1,26.6c8.7,3.5,20.4,7,33.1,7
					c5.8,0,11.9-0.7,18-2.5c1.3-0.4,2.6-0.8,3.8-1.3c1.6,4.3,3.2,8.6,4.7,13c-3.3,1.3-6.7,2.3-10.2,3.2c-25.7,6.5-53.6,2.2-76.4-12
					l-0.9,1.6c16.1,10,34.8,15.2,53.4,15.2c8.2,0,16.3-1,24.3-3c3.5-0.9,7-2,10.4-3.3c10,28.7,18.5,57.9,24.8,87.9
					c2.1,10.1,4,20.3,5.6,30.8c0,0-0.1,0-0.1,0l0.4,1.8c0,0,0,0,0,0c1,6.5,1.9,13.1,2.8,19.8c-4.6,1.3-9.3,2.4-14,3.1
					c-26.5,4.1-55.7-0.4-86.7-13.4c-27.6-11.5-53.4-28.2-78.3-44.3l-0.9,1.6c25,16.2,50.8,32.9,78.6,44.5
					c23.8,9.9,46.6,14.9,67.9,14.9c6.7,0,13.3-0.5,19.7-1.5c4.8-0.7,9.5-1.8,14-3.1c4.3,35,6.3,72.4,5.9,113.3
					c-0.4,0.1-0.7,0.2-1.1,0.3l0.4,1.8c0.2-0.1,0.5-0.1,0.7-0.2c-0.1,5.8-0.2,11.8-0.3,17.7c-22,2.1-45.9-1.4-71.3-10.5
					c-28.9-10.4-55.8-26.5-81.9-42.1l-0.9,1.6c26.2,15.6,53.2,31.8,82.2,42.2c20.8,7.5,40.6,11.2,59.2,11.2c4.3,0,8.4-0.2,12.6-0.6
					c-0.7,24.8-2.2,50.9-4.5,78.4l1.8,0.2c2.3-27.7,3.8-53.9,4.5-78.8c5.7-0.6,11.4-1.6,16.8-3c39-9.9,75.2-41.3,99.2-86.4
					L659.3,689.2z"/>
			</g>
		</g>
	</g>
</g>
<g id="_x40_głowa_x5F_detektywa">
	<g>
		<path class="st10" d="M515.2,383.5c0,0-3,27.2,0,28.2s11.8,0,11.8,0L515.2,383.5z"/>
		<linearGradient id="SVGID_7_" gradientUnits="userSpaceOnUse" x1="510.1671" y1="391.6066" x2="611.0925" y2="391.6066">
			<stop  offset="0" style="stop-color:#FFC99C"/>
			<stop  offset="0.2995" style="stop-color:#FFB07B"/>
			<stop  offset="1" style="stop-color:#FF8F61"/>
		</linearGradient>
		<path class="st11" d="M539.4,424.9c7.3,3.9,20.9-0.8,28.7-3.7c4.4-1.7,3.7-4.9,8.4-5c6.5-0.1,13.1,15.4,16.2,21.1
			s6.1,12.2,12.1,14.8c1.1-14.7,5.2-38.9,6.3-53.6c0.1-1.9,0.2-4-1.1-5.4c-0.9-0.9-2.3-1.3-3.5-1.7c-8.7-2.8-14.6-11.1-18.4-19.4
			s-6.4-17.4-11.8-24.8c-7.7-10.6-20.9-16.8-33.9-16.1c-10.1,0.6-20.4,5.5-27.2,13.1c-6.4,7.2-5.2,14.9-3.8,23.8
			C514.6,388.7,520.5,414.8,539.4,424.9z"/>
		<linearGradient id="SVGID_8_" gradientUnits="userSpaceOnUse" x1="534.8225" y1="443.6048" x2="560.7678" y2="310.6351">
			<stop  offset="0" style="stop-color:#421A8C"/>
			<stop  offset="0.368" style="stop-color:#401788"/>
			<stop  offset="0.7257" style="stop-color:#390E7C"/>
			<stop  offset="1" style="stop-color:#30036E"/>
		</linearGradient>
		<path class="st12" d="M607.1,390.8c-1.6,4.9-5.4,9.9-10.6,10c-5.8,0.2-10-5.5-12.4-10.9c-1.8-4-3.3-8.3-6.1-11.6
			c-2.8-3.4-7.3-5.8-11.6-4.6c-5,1.4-7.6,7.5-6.7,12.7c0.8,5.2,4.2,9.6,7.6,13.6c3.4,4,7,8,8.7,13c3.1,9.4-2.1,20.3-10.7,25.1
			c-8.6,4.8-19.7,4.1-28.4-0.5c-4-2.1-7.6-5-9.8-8.8s-2.8-8.9-0.7-12.8c4.5-8.8,18.2-8.4,24.3-16.2c5.5-7.1,2.3-17.4-1.1-25.8
			c-3-7.2-7.3-15.5-15-16.4c-7.5-0.8-13.9,6-21.4,6.6c-9.3,0.8-16.5-7.8-21.1-15.9c-2.1-3.7,3.2,3.2,3.2-1s2.4-8.7,6.5-9.7
			c5.9-1.5,4.1-6.2,10.2-6.2c7.2,0,11.3-7.9,16.9-12.6c7.9-6.7,19.4-6.6,29.8-6c6.8,0.4,13.6,1,19.9,3.6c14.4,5.9,18.2,18.2,20,32.1
			C600.2,363.5,612.4,374.3,607.1,390.8z"/>
		<path class="st13" d="M598.3,348.4c-1.7-13.9-5.6-26.2-20-32.1c-6.3-2.6-13.2-3.1-19.9-3.6c-10.4-0.6-21.8-0.7-29.8,6
			c-5.5,4.6-9.7,12.5-16.9,12.6c-6.1,0-4.3,4.7-10.2,6.2c-4.1,1-6.5,5.5-6.5,9.7s-5.2-2.6-3.2,1c1.4,2.5,3,5,4.9,7.3
			c1.3,0.6,2.6,0.9,3.9,0.9c23,2,28-16.4,67,8c7,3,19-1,25,5c8.9,7.3,11.3,21.9,3.3,31.4c0.2,0,0.3,0,0.5,0c5.2-0.2,9-5.1,10.6-10
			C612.4,374.3,600.2,363.5,598.3,348.4z"/>
		<g>
			<linearGradient id="SVGID_9_" gradientUnits="userSpaceOnUse" x1="476.6832" y1="324.2443" x2="618.2046" y2="324.2443">
				<stop  offset="0" style="stop-color:#EE5916"/>
				<stop  offset="1" style="stop-color:#FA9300"/>
			</linearGradient>
			<path class="st14" d="M557.5,282.6c-0.4,0.2-0.8,0.4-1.1,0.6c0,0.1-0.1,0.1-0.2,0.2c-0.9,0.6-1.7,1.3-2.4,2.1
				c-1.8,2.1-2.8,4.5-3.2,7.2c0,0.2-0.2,0.2-0.3,0.2c-2.6,0.3-5,1-7.2,2.4c-1.6,1-3.1,2.1-4.4,3.5c-2.8,3-4.4,6.5-4.8,10.6
				c-0.4,4-0.7,8-1.1,12.1c-0.5,6.1-1.1,12.2-1.6,18.4c0,0.3-0.1,0.4-0.4,0.4c-0.4,0-0.7-0.1-1.1-0.1c-5.9-0.5-11.9-1-17.8-1.5
				c-3.6-0.3-7.1-0.6-10.7-0.9c-0.2,0-0.4,0-0.6-0.2c0,0.1-0.1,0.2-0.2,0.2c-1.3,0.8-2.6,1.5-3.9,2.3c-1,0.6-2,1.2-3.1,1.7
				c-1.7,1-3.4,2-5.2,2.9c-1,0.6-2.1,1.2-3.1,1.8c-1.7,0.9-3.4,1.9-5,2.9c-1.1,0.6-2.2,1.2-3.3,1.9c-0.2,0.1-0.2,0.3-0.2,0.5
				c0.1,0.9,0.2,1.7,0.3,2.6c0,0.3,0.1,0.3,0.3,0.3c2-0.1,4-0.2,6-0.3c3.1-0.1,6.2-0.3,9.4-0.4c2.3-0.1,4.7-0.2,7-0.2
				c1.1,0,2.1-0.2,3.2,0c0.1-0.1,0.2-0.1,0.3-0.1c1.3,0,2.5-0.1,3.8-0.1c2,0,4-0.1,6-0.1c3,0,6.1,0,9.1-0.1c4.1,0,18.4,0.3,21,0.4
				c0.9,0,1.8,0,2.6,0.2c0.1,0,0.2-0.1,0.3,0c2.1,0.2,4.1,0.3,6.2,0.6c4.2,0.4,8.4,1,12.6,1.7c0.6,0.1,1.2,0.1,1.7,0.3
				c0.1-0.1,0.3-0.1,0.4,0c4.2,0.7,8.5,1.4,12.7,2.2c4.8,0.9,9.6,1.8,14.4,2.7c0.6,0.1,1.1,0.1,1.6,0.4c0.1-0.1,0.2,0,0.4,0
				c2,0.4,3.9,0.8,5.9,1.2c4.9,1,9.8,2.1,14.7,3.1c0.2,0,0.3,0.1,0.4-0.2c0.4-1.2,0.8-2.4,1.2-3.6c0.1-0.2,0-0.3-0.1-0.4
				c-1.7-1.3-3.3-2.7-5-4c-1.9-1.5-3.9-3.1-5.8-4.6c-2.6-2.1-5.2-4.1-7.7-6.2c-0.4-0.3-0.8-0.6-1.1-1c-0.2,0.1-0.3,0-0.5,0
				c-1.9-0.2-3.8-0.3-5.7-0.5c-4-0.3-8-0.7-12-1c-3.9-0.3-7.9-0.7-11.8-1c-0.4,0-0.5-0.1-0.5-0.5c0.3-3,0.5-5.9,0.8-8.9
				c0.2-2.8,0.5-5.5,0.7-8.3c0.3-3.8,0.6-7.6,1-11.3c0.2-1.8,0.3-3.6,0-5.4c-0.4-2.5-1.1-4.8-2.4-7c-0.9-1.4-1.9-2.8-3.1-3.9
				c-2.2-2.1-4.7-3.5-7.5-4.4c-0.2-0.1-0.4-0.1-0.4-0.3c-0.2,0-0.1-0.1-0.1-0.2c0.4-2,1.3-3.6,3.2-4.6c0.3-0.2,0.3-0.3,0.2-0.6
				C559.2,286,558.3,284.3,557.5,282.6z"/>
			<path class="st15" d="M525.2,299c-0.2,0.3-0.6,0.5-0.9,0.6c-1.3,0.8-2.6,1.7-3.9,2.6c-1.5,1.1-3,2.3-4.3,3.6
				c-5.1,4.8-9,10.4-11.8,16.8c-2,4.7-3.2,9.5-3.6,14.6c0,0,0,0.1,0,0.1c0.1,0.2,0.4,0.2,0.6,0.2c3.5,0.3,7.1,0.6,10.7,0.9
				c5.9,0.5,11.9,1,17.8,1.5c0.4,0,0.7,0.1,1.1,0.1c0.3,0,0.4-0.1,0.4-0.4c0.5-6.1,1-12.3,1.6-18.4c0.3-4,0.7-8,1.1-12.1
				c0.4-4.1,2-7.6,4.8-10.6c1.3-1.4,2.7-2.5,4.4-3.5c2.2-1.3,4.7-2,7.2-2.4c0.1,0,0.3,0,0.3-0.2c-0.2,0-0.3,0-0.5,0
				c-4-0.1-7.9,0.4-11.8,1.3c-1.7,0.4-3.4,0.9-5.1,1.5c-1.1,0.4-2.2,0.9-3.3,1.3c-0.4,0.2-0.9,0.5-1.4,0.6
				C527.4,297.9,526.3,298.5,525.2,299z"/>
			<path class="st15" d="M598.4,345.8c0.5-5.3,0.1-10.5-1.2-15.6c-0.4-1.6-0.9-3.2-1.4-4.8c-0.8-2.5-2-4.9-3.2-7.2
				c-0.8-1.4-1.6-2.8-2.5-4.1c-4.5-6.6-10.2-11.7-17.2-15.5c-5-2.7-10.3-4.5-16-5.3c0.1,0.2,0.3,0.2,0.4,0.3
				c2.9,0.9,5.4,2.3,7.5,4.4c1.2,1.2,2.2,2.5,3.1,3.9c1.3,2.2,2.1,4.5,2.4,7c0.3,1.8,0.1,3.6,0,5.4c-0.3,3.8-0.6,7.6-1,11.3
				c-0.2,2.8-0.5,5.5-0.7,8.3c-0.3,3-0.5,5.9-0.8,8.9c0,0.4,0.1,0.5,0.5,0.5c3.9,0.3,7.9,0.7,11.8,1c4,0.3,8,0.7,12,1
				c1.9,0.2,3.8,0.3,5.7,0.5C598,345.9,598.2,345.9,598.4,345.8z"/>
		</g>
	</g>
	<linearGradient id="SVGID_10_" gradientUnits="userSpaceOnUse" x1="503.8674" y1="444.9983" x2="532.8575" y2="444.9983">
		<stop  offset="0" style="stop-color:#421A8C"/>
		<stop  offset="1" style="stop-color:#30036E"/>
	</linearGradient>
	<path class="st16" d="M508.1,463.7c0.5,0.8,0.9,1.6,1.5,2.3c2.3,2.3,5,3.3,8.2,2.6c2.2-0.5,4.3-1.5,6.3-2.5c1.8-0.9,3.4-2,4.9-3.3
		c2.8-2.6,4-5.9,3.8-9.7c-0.2-2.8-0.9-5.5-1.8-8.2c-1.5-4.3-3-8.6-4.4-12.9c-0.9-2.7,0-5.1,2-6.9c0.3-0.3,0.7-0.5,1-0.8
		c-0.4-1.1-1-2.1-1.5-3.2c-1.7,1.1-3.2,2.5-4.2,4.3c-1,1.9-1.3,3.9-0.9,6c0.1,0.9,0.4,1.7,0.7,2.5c1.4,3.9,2.8,7.8,4.1,11.8
		c0.7,2.2,1.1,4.5,0.8,6.9c-0.3,2.5-1.6,4.4-3.8,5.8c-0.2-0.4-0.3-0.9-0.4-1.3c-1.3-3.7-2.6-7.4-3.9-11.1c-0.2-0.5-0.4-0.2-0.6-0.2
		c-5.3,1.9-10.6,3.7-15.9,5.6C505.3,455.6,506.7,459.6,508.1,463.7z"/>
</g>
<g id="detekstyw">
	<linearGradient id="SVGID_11_" gradientUnits="userSpaceOnUse" x1="740.1769" y1="633.9666" x2="766.1769" y2="802.4666">
		<stop  offset="0" style="stop-color:#30036E"/>
		<stop  offset="1" style="stop-color:#421A8C"/>
	</linearGradient>
	<path class="st17" d="M654.3,601.5c0,0,23.1,222.1,38.5,251.2s107.1-6.3,136.6-10.3c21.1-2.8,19.7-7.4,22.3-8.2
		c3.3-1.1,4.9-4.9,3.9-8.3c-2.9-10.3-6.4-22.7-8.2-29.3c-0.8-2.9-3.2-5.1-6.2-5.5c-19.2-3-89-12.4-103.8,4.1
		c9.9-25.4,35.7-143.2,12.9-178.6S654.3,601.5,654.3,601.5z"/>
	<path class="st13" d="M855.6,825.9c-2.9-10.3-6.4-22.7-8.2-29.3c-0.8-2.9-3.2-5.1-6.2-5.5c-19.2-3-89-12.4-103.8,4.1
		c9.9-25.4,35.7-143.2,12.9-178.6c-22.7-35.4-96-15-96-15s3.2,30.9,8,71.2c17.2,3.3,33.6,10.7,44.4,25.7c18,26,9,58,3,89
		c-2,8-5,21,4,24c5,1,10-9,14-6s10,8,13,8c33,0,72-28,99,1c7,7-5,14-11,16c-41,11.8-85,32.9-127.3,30.1c27.9,13.2,102-14.7,128-18.2
		c21.1-2.8,19.7-7.4,22.3-8.2C855,833.1,856.6,829.3,855.6,825.9z"/>
	<g>
		<linearGradient id="SVGID_12_" gradientUnits="userSpaceOnUse" x1="563.2709" y1="839.581" x2="643.7823" y2="839.581">
			<stop  offset="0" style="stop-color:#FA9300"/>
			<stop  offset="1" style="stop-color:#EE5916"/>
		</linearGradient>
		<path class="st18" d="M567.2,794.6c-4.6-4.1,20,69.7,19.8,70.3c-1.1,4.5-5,7.7-9.6,8.1c-7.1,0.7-26.4,2.2-31.6,5.4
			c-4.5,2.8-7.6,6.3-9.5,9.4c-1.7,2.6,0.1,6.1,3.2,6.2l70,2c3.9,0.1,7-3.3,6.6-7.2l-13.1-105.7C603.1,783.1,580.1,785.4,567.2,794.6
			z"/>
		<path class="st15" d="M539.6,894l70,2c3.9,0.1,7-3.3,6.6-7.2l-13.1-105.7c0,0-21.6,2.1-34.6,10.6c7.2,2.9,16.2,3.3,20,9
			c13.2,19.2,10.8,44.4,12,67.1c0,1.2-8.4-3.6-10.8,0c-2.4,6,9.6,6,6,9.6c-2.4,3.6-8.4-3.6-10.8,0c-3.6,2.4,3.6,7.2,3.6,7.2
			c-14.9,6.4-40.3-8.1-52.5,4.7C536.5,892.9,537.8,893.9,539.6,894z"/>
	</g>
	<radialGradient id="SVGID_13_" cx="609.342" cy="708.2057" r="105.4855" gradientUnits="userSpaceOnUse">
		<stop  offset="0" style="stop-color:#30036E"/>
		<stop  offset="1" style="stop-color:#421A8C"/>
	</radialGradient>
	<path class="st19" d="M581.7,779.5c12-31-9-64-32-89c-5-5,6-7,8-11c4-5-2-9-6-13c-1-1,0-3,0-5c55,6,115,22,166-4c20-10,11-40-4-53
		c-6.8-5.4-14.9-8.5-23.5-11.2c-59.9,13.2-151.5,34.9-169.1,47.8c-26.6,19.4,23.2,111.1,31.4,139.7c3.5,12.4,7.7,16.5,11,18.4
		C572.1,794.6,579,787.8,581.7,779.5z"/>
	<linearGradient id="SVGID_14_" gradientUnits="userSpaceOnUse" x1="571.1242" y1="626.0829" x2="702.0974" y2="728.8719">
		<stop  offset="0" style="stop-color:#421A8C"/>
		<stop  offset="1" style="stop-color:#30036E"/>
	</linearGradient>
	<path class="st20" d="M743,582c0,0-22.3,4.5-52.8,11.3c8.6,2.7,16.7,5.8,23.5,11.2c15,13,24,43,4,53c-51,26-111,10-166,4
		c0,2-1,4,0,5c4,4,10,8,6,13c-2,4-13,6-8,11c23,25,44,58,32,89c-2.8,8.3-9.6,15.1-18.2,19.7c2.5,1.4,4.5,1.6,5.7,2.9
		c2.4,2.7,6.1,3.8,9.3,2.3c8-3.8,16.6-8,21.8-10.5c2.9-1.4,4.6-4.3,4.4-7.5c-1-19.3-5.9-86.2-24.2-98.4
		c26.6,6.1,129.8,18.9,161.5-8.7S743,582,743,582z"/>
	<path class="st13" d="M743,582c0,0-22.3,4.5-52.8,11.3c8.6,2.7,16.7,5.8,23.5,11.2c15,13,24,43,4,53c-51,26-111,10-166,4
		c0,2-1,4,0,5c4,4,10,8,6,13c-2,4-13,6-8,11c23,25,44,58,32,89c-2.8,8.3-9.6,15.1-18.2,19.7c2.5,1.4,4.5,1.6,5.7,2.9
		c2.4,2.7,6.1,3.8,9.3,2.3c8-3.8,16.6-8,21.8-10.5c2.9-1.4,3-4.7,4.4-7.5c15.3-32-5.9-86.2-24.2-98.4c26.6,6.1,129.8,18.9,161.5-8.7
		S743,582,743,582z"/>
	<path class="st21" d="M639.6,402.8c0,0-11.5-11.6-18.4-14.3S602,399.2,592,419.1c-10,19.9-5.8,95.5,10,134.6
		c15.7,39.1,22,54.8,22,54.8L639.6,402.8z"/>
	<path class="st13" d="M618.5,609.9l6.9,31.9c2.5,11.7,14.1,19.2,25.8,16.7l105.1-22.1c0,0-9.1-40.4-13.2-54.5
		C641.5,604.7,618.5,609.9,618.5,609.9z"/>
	<linearGradient id="SVGID_15_" gradientUnits="userSpaceOnUse" x1="722.7889" y1="497.0328" x2="598.7889" y2="611.0328">
		<stop  offset="0.3192" style="stop-color:#71EBB5"/>
		<stop  offset="1" style="stop-color:#00D38F"/>
	</linearGradient>
	<path class="st22" d="M671.8,415.3c-35.2-23-52.6-10.4-63.8,6.2c-13.3,19.7-16.5,44.6-9.9,67.4c3.6,12.6,8.3,25.8,10.5,42.9
		l17.9,88.5c1.5,11.9,8.6,22.5,19.3,27.8c4.1,2,9,3.5,14.8,3.7c22.8,0.8,100.3-27.6,122.6-26.8C757.7,589.8,727,451.3,671.8,415.3z"
		/>
	<path class="st23" d="M783,625c-25.3-35.3-56-173.7-111.2-209.8c-5.2-3.4-10.1-6-14.6-8c42.6,31.8,48.7,92.4,52.3,144
		c2,21,25,35,41,51c3,4,8,7,6,12c-7,22-37,20-56,27c-10.8,3.8-22.4,6-33,10.2C696.3,648,762.7,624.3,783,625z"/>
	<path class="st21" d="M695.8,587.7h-48.7c-5,0-9-4-9-9v-14.8h66.7v14.8C704.8,583.6,700.8,587.7,695.8,587.7z"/>
	<g>
		<linearGradient id="SVGID_16_" gradientUnits="userSpaceOnUse" x1="867.0406" y1="852.4568" x2="943.5543" y2="808.7348">
			<stop  offset="0" style="stop-color:#FA9300"/>
			<stop  offset="1" style="stop-color:#EE5916"/>
		</linearGradient>
		<path class="st24" d="M845.5,828.5c0.6,2.2,2.5,3.7,4.8,3.9c13.7,0.9,61.4,3.1,61.9,3.4c3.8,2.2,5.8,6.7,5,11.1
			c-1.2,6.8-5,25.1-3.5,30.8c1.3,4.9,3.9,8.7,6.1,11.4c2,2.3,5.7,1.5,6.6-1.3l17.9-55.5c2.7-8.3-2.7-17.1-11.3-18.5l-87.8-18
			c-2.3-0.5-4.4,1.4-4.2,3.7C841.4,806.1,842.6,818.5,845.5,828.5z"/>
		<path class="st15" d="M932.9,813.7l-87.3-17.8c-2.6-0.5-4.9,1.6-4.7,4.2c0.4,5.2,1.3,13.7,3,21.8c-0.4-6.3,2-12.3,6.2-14
			c13.9-5.8,27.8,5.8,41.7,9.3c11.6,3.5,25.5-1.2,34.8,7c4.6,2.3-7,5.8-3.5,10.4c1.2,2.3,3.5-2.3,7-3.5c7-1.2,5.8,9.3,3.5,12.7
			c-9.3,13-15.6,30.6-12.9,46c2,1.3,5,0.5,5.8-2l17.9-55.5C946.9,823.9,941.5,815.1,932.9,813.7z"/>
	</g>
	<path class="st21" d="M648.4,498.6c-0.9-0.3-1.8-0.6-2.8-0.4c-1,0.2-1.8,0.9-2.6,1.6c-3,2.8-5.9,5.7-8.6,8.7
		c7.1,0.8,14.4,1.5,21.3-0.5c1.9-0.5,3.7-1.3,5.6-2c2.9-1.2,14.5-6.4,5.1-5.6C660.2,500.9,654.3,500.2,648.4,498.6z"/>
</g>
<g id="_x40_reka_x5F_z_x5F_lupa">
	<g>
		
			<linearGradient id="SVGID_17_" gradientUnits="userSpaceOnUse" x1="1382.0068" y1="545.1464" x2="1324.5874" y2="593.0876" gradientTransform="matrix(-1 0 0 1 1743.08 0)">
			<stop  offset="0" style="stop-color:#FFC99C"/>
			<stop  offset="0.2995" style="stop-color:#FFB07B"/>
			<stop  offset="1" style="stop-color:#FF8F61"/>
		</linearGradient>
		<path class="st25" d="M367.8,565.6l5-0.7c1.2-2.9,2.2-6,3.1-9.1c0.1-1.4,0.6-3.2,1.4-4.8c0.1-0.3,0.2-0.6,0.2-0.9
			c1.1-1.9,3-2.7,4.8-2.5c0,0,0.1,0,0.1,0c5.8,0.3,27.6,6.4,32.6,10c3.9,0,7.7,0,11.2,0v21.8c-2.8-0.2-5.7-0.3-8.7-0.5
			c-3.6,5.8-9.2,10.8-14.9,13.9l0,0c0,0,0,0-0.1,0c-0.3,0.2-0.6,0.3-0.8,0.5c-0.1,0-0.2,0-0.3,0.1c-1.2,0.5-3.4,1.6-7.9,3.6
			c-3.7,1.7-8.3,2.3-12.5,2.5c-6.4,0.2-12-4.3-13.2-10.6c-1.2-6.2-2.6-13.4-3.2-15.9C363.6,568.4,367.8,565.6,367.8,565.6z"/>
		<linearGradient id="SVGID_18_" gradientUnits="userSpaceOnUse" x1="540.8141" y1="485.6352" x2="553.4808" y2="575.6351">
			<stop  offset="0.3192" style="stop-color:#71EBB5"/>
			<stop  offset="1" style="stop-color:#00D38F"/>
		</linearGradient>
		<path class="st26" d="M664.9,433.3c-19-14.5-42.1-8.7-61,6.3c-1,0.8-1.9,1.8-2.7,2.9c0,0,0,0,0,0c-11.2,16.1-75,72-85.9,81.5
			c-1,0.9-2.2,1.5-3.6,1.8c-11.9,2.8-73.6,17.5-95.9,22.9c-4.5,1.1-7.3,5.6-6.2,10c2.5,10.7,5.5,21.9,7.6,29
			c1.2,4.2,5.4,6.8,9.7,5.9l111.4-22c1-0.2,1.9-0.6,2.8-1.1l81.9-48.3C655.5,500.8,700.5,461.8,664.9,433.3z"/>
		<path class="st21" d="M523,538.8c-25.9,28.6-67.6,42.7-106.7,45.5c0.3,1.2,0.7,2.4,1,3.5c1.2,4.2,5.4,6.8,9.7,5.9l111.4-22
			c1-0.2,1.9-0.6,2.8-1.1l81.9-48.3c17.5-11.5,38.6-28.2,48.8-45.6C624.4,501.4,578,540.3,523,538.8z"/>
		<g>
			<g>
				<path class="st27" d="M347,518.5c0.5-1.5,1.7-2.9,3.3-3.1c1.4-0.2,2.7,0.4,4.1,0.2c2.3-0.4,3.5-2.9,4.1-5.2
					c0.6-2.3,1.2-4.8,3.2-6c1.4-0.8,3.1-0.7,4.7-0.4c1.6,0.3,3.2,0.8,4.8,0.7c1.6-0.1,3.3-1.1,3.7-2.7c3.1,1.8,4.3,5.6,5.1,9.1
					c0.4,2.1,0.6,4.6-1.2,5.8c-1,0.7-2.3,0.7-3.5,0.4c-1.2-0.3-2.3-0.8-3.5-0.9c-2.8-0.4-5.7,1.2-6.9,3.7c-0.7,1.4-0.8,3-1.2,4.5
					c-0.4,1.5-1.2,3-2.6,3.7c-1.5,0.7-3.2,0.2-4.8,0.5c-2.2,0.5-3.9,2.9-3.6,5.1c-0.1-0.6-2.7-2.5-3.2-3.2c-1-1.3-1.8-2.7-2.4-4.1
					C346.1,524.1,346.2,521,347,518.5z"/>
				<path class="st2" d="M350.5,522.5c-3.8-13.2-0.9-25.9,6.3-31c1.1-0.8,2.3-1.4,3.7-1.8l-7.7,2.2c-9.9,2.8-14.4,17.5-10,32.7
					c4.3,15.3,15.9,25.3,25.7,22.5l7.7-2.2c-1.3,0.4-2.7,0.5-4,0.4C363.4,545,354.3,535.7,350.5,522.5z"/>
				<path class="st13" d="M386.2,512.3c-4.3-15.3-15.9-25.3-25.7-22.5c-1.3,0.4-2.6,1-3.7,1.8c8.8,0.4,17.9,9.8,21.7,23
					c3.8,13.2,0.9,25.9-6.3,31c1.4,0.1,2.7-0.1,4-0.4C386.1,542.2,390.6,527.5,386.2,512.3z"/>
			</g>
			<g>
				<path class="st13" d="M384.8,564.4c-1.5-6.3-3.9-12-7.8-19.6c-3.6,1-5.5,1.6-9.1,2.6c0.6,7.9,1.5,13.6,3.2,19.3
					C376.6,569.1,382,569.1,384.8,564.4z"/>
			</g>
		</g>
		<path class="st23" d="M563.6,494.3c28.2-29.1,63.9-70.5,107.1-55.5c-1.6-1.9-3.5-3.7-5.8-5.5c-19-14.5-42.1-8.7-61,6.3
			c-1,0.8-1.9,1.8-2.7,2.9c0,0,0,0,0,0c-11.2,16.1-75,72-85.9,81.5c-0.6,0.5-1.3,0.9-2,1.3C532.7,524.3,549.9,508.7,563.6,494.3z"/>
	</g>
</g>
<g id="_x40_chmury">
	<g>
		<path class="st4" d="M273.2,243c143.5,12.9,358.3-18.4,452-86.6c81.3-71.9-29.9-180.6-84.6-86.6c-24.9-111.5-227.3-89.4-204,67.3
			c-43.1-47-129.4,16.6-102.8,86.6C264.9,199.7,214.3,231,273.2,243z"/>
		
			<linearGradient id="SVGID_19_" gradientUnits="userSpaceOnUse" x1="626.863" y1="237.1975" x2="695.1722" y2="88.0558" gradientTransform="matrix(-1 0 0 1 1185.516 0)">
			<stop  offset="0" style="stop-color:#FFFFFF"/>
			<stop  offset="0.1334" style="stop-color:#FCFCFC"/>
			<stop  offset="1" style="stop-color:#EBEBEB"/>
		</linearGradient>
		<path class="st28" d="M296.9,244.7c12.5-3.2,24.7-7.4,36.5-12.8c13.2-6.1,25.7-13.9,39.3-19c11.4-4.2,23.9-6.5,35.7-4.2
			c-8.8-5.3-11.9-20.2-5.4-29.3c8.1-11.2,24.1-13.7,37.6-10.9s25.8,9.9,38.9,14.3c17.9,6.1,37.6,7.1,56.1,3c8.9-2,18.7-6.3,21.2-15
			c3.4-11.8-8-22-13.8-32.8c-10.9-20.2,1.4-48.9,23.5-55c26.9-7.4,51.8,14.8,77.9,24.7c37,14,82.2-0.2,105.6-31.7
			c8.8,24.2,4.4,54.7-24.7,80.5C636.6,220.9,439.4,252.4,296.9,244.7z"/>
	</g>
	<g>
		<path class="st4" d="M877.5,171.7c61.6,5.5,153.7-7.9,193.9-37.2c34.9-30.8-12.8-77.5-36.3-37.2c-10.7-47.8-97.5-38.4-87.5,28.9
			c-18.5-20.2-55.5,7.1-44.1,37.2C873.9,153.2,852.2,166.6,877.5,171.7z"/>
		
			<linearGradient id="SVGID_20_" gradientUnits="userSpaceOnUse" x1="185.5721" y1="169.2509" x2="214.88" y2="105.2618" gradientTransform="matrix(-1 0 0 1 1185.516 0)">
			<stop  offset="0" style="stop-color:#FFFFFF"/>
			<stop  offset="0.1334" style="stop-color:#FCFCFC"/>
			<stop  offset="1" style="stop-color:#EBEBEB"/>
		</linearGradient>
		<path class="st29" d="M887.6,172.5c5.4-1.4,10.6-3.2,15.6-5.5c5.7-2.6,11-6,16.9-8.2c4.9-1.8,10.3-2.8,15.3-1.8
			c-3.8-2.3-5.1-8.7-2.3-12.6c3.5-4.8,10.3-5.9,16.1-4.7c5.8,1.2,11.1,4.2,16.7,6.1c7.7,2.6,16.1,3.1,24,1.3c3.8-0.8,8-2.7,9.1-6.4
			c1.5-5-3.4-9.4-5.9-14.1c-4.7-8.6,0.6-21,10.1-23.6c11.5-3.2,22.2,6.3,33.4,10.6c15.9,6,35.3-0.1,45.3-13.6
			c3.8,10.4,1.9,23.5-10.6,34.5C1033.4,162.3,948.8,175.8,887.6,172.5z"/>
	</g>
</g>
</svg>
