<?xml version="1.0" encoding="UTF-8"?>
<svg width="26px" height="28px" viewBox="0 0 26 28" version="1.1" xmlns="http://www.w3.org/2000/svg" xmlns:xlink="http://www.w3.org/1999/xlink">
    <!-- Generator: Sketch 53.2 (72643) - https://sketchapp.com -->
    <title>nauka</title>
    <desc>Created with Sketch.</desc>
    <g id="Symbols" stroke="none" stroke-width="1" fill="none" fill-rule="evenodd">
        <g id="menu" transform="translate(-53.000000, -29.000000)" fill-rule="nonzero" stroke="#FFFFFF" stroke-width="2">
            <g id="eduweb_logo_podst_mono" transform="translate(54.000000, 30.000000)">
                <g id="nauka" transform="translate(-0.000000, 0.500000)">
                    <path d="M-2.78888024e-13,15.8661539 L-2.78888024e-13,21.6901539 C-2.78888024e-13,24.2079139 2.69696,25.8072739 4.90624,24.5989539 L21.568,15.4923939 C22.4170057,15.036104 23.020932,14.2279017 23.21792,13.2843939 C23.2488155,13.1404639 23.2701951,12.9946548 23.28192,12.8479139 L23.28192,12.5067939 L2.60992,13.2843939 L-2.78888024e-13,15.8661539 Z" id="Path"></path>
                    <path d="M23.18208,11.7291939 C22.9557896,10.8570605 22.3790518,10.1172611 21.58848,9.68503391 L4.928,0.422313906 C2.7168,-0.805846094 -7.63833441e-14,0.791593906 -7.63833441e-14,3.32023391 L-7.63833441e-14,9.14743391 L2.6112,11.7291939 L23.2832,12.5067939 L23.2832,12.3147939 C23.2669728,12.1169755 23.2331321,11.9209989 23.18208,11.7291939 Z" id="Path"></path>
                </g>
            </g>
        </g>
    </g>
</svg>