<?xml version="1.0" encoding="UTF-8"?>
<svg width="28px" height="28px" viewBox="0 0 28 28" version="1.1" xmlns="http://www.w3.org/2000/svg" xmlns:xlink="http://www.w3.org/1999/xlink">
    <!-- Generator: Sketch 48.2 (47327) - http://www.bohemiancoding.com/sketch -->
    <title>route-path-way</title>
    <desc>Created with Sketch.</desc>
    <defs></defs>
    <g id="components/top-bar" stroke="none" stroke-width="1" fill="none" fill-rule="evenodd" transform="translate(-1563.000000, -31.000000)">
        <g id="Top-bar" fill="#FFFFFF" fill-rule="nonzero">
            <g id="Group-2" transform="translate(1483.000000, 23.000000)">
                <g id="route-path-way" transform="translate(80.000000, 8.000000)">
                    <path d="M24.5,16.3331 L3.5,16.3359 C2.85495,16.3359 2.33345,15.8137 2.33345,15.169 C2.33345,14.5243 2.85495,14.00245 3.5,14.00245 L11.66655,14.00245 C13.5989,14.00245 15.16655,12.4348 15.16655,10.50245 L15.16655,6.7858 C16.5235,6.30385 17.5,5.02215 17.5,3.5 C17.5,1.5666 15.9334,0 14,0 C12.0666,0 10.5,1.5666 10.5,3.5 C10.5,5.02215 11.47755,6.30385 12.83345,6.7858 L12.83345,10.5021 C12.83345,11.14575 12.3116,11.66865 11.66655,11.66865 L3.5,11.66865 C1.56765,11.66865 0,13.23525 0,15.16865 C0,17.101 1.56765,18.66865 3.5,18.66865 L24.5,18.66655 C25.14505,18.66655 25.66655,19.18805 25.66655,19.83275 C25.66655,20.4785 25.14505,21 24.5,21 L8.16655,21 C6.2342,21 4.66655,22.56765 4.66655,24.5 C4.66655,26.43235 6.2342,28 8.16655,28 L21,28 L21,25.6669 L8.16655,25.6669 C7.52185,25.6669 7,25.1447 7,24.5 C7,23.8553 7.52185,23.3331 8.16655,23.3331 L24.5,23.3331 C26.43235,23.3331 28,21.76545 28,19.8331 C28,17.9011 26.43235,16.3331 24.5,16.3331 Z M14,2.33345 C14.64505,2.33345 15.16655,2.8553 15.16655,3.5 C15.16655,4.1447 14.64505,4.66655 14,4.66655 C13.35495,4.66655 12.83345,4.1447 12.83345,3.5 C12.83345,2.8553 13.35495,2.33345 14,2.33345 Z" id="Shape"></path>
                </g>
            </g>
        </g>
    </g>
</svg>