<?xml version="1.0" encoding="UTF-8"?>
<svg width="39px" height="39px" viewBox="0 0 39 39" version="1.1" xmlns="http://www.w3.org/2000/svg" xmlns:xlink="http://www.w3.org/1999/xlink">
    <!-- Generator: sketchtool 49.3 (51167) - http://www.bohemiancoding.com/sketch -->
    <title>DA6B77ED-39EA-46D2-9B2C-606F7DC2EEB1</title>
    <desc>Created with sketchtool.</desc>
    <defs></defs>
    <g id="Page-1" stroke="none" stroke-width="1" fill="none" fill-rule="evenodd" stroke-linejoin="round">
        <g id="home-logged-sciezka" transform="translate(-100.000000, -3020.000000)" stroke="#FFFFFF" stroke-width="1.4">
            <g id="bottom/bar" transform="translate(0.000000, 2771.000000)">
                <g id="logo-circle-facebook.3.3.1" transform="translate(101.000000, 250.000000)">
                    <g id="Outline_Icons">
                        <g id="Group">
                            <circle id="Oval" stroke-linecap="round" cx="18.5" cy="18.5" r="18.5"></circle>
                            <path d="M24.6757826,14.4782609 L20.9130435,14.4782609 L20.9130435,12.8341739 C20.9130435,11.9912174 21.4728696,11.7933478 21.8653913,11.7933478 C22.2595217,11.7933478 24.1304348,11.7933478 24.1304348,11.7933478 L24.1304348,8.08208696 L20.3483913,8.07082609 C16.6516087,8.07082609 16.0869565,10.8361739 16.0869565,12.6057391 L16.0869565,14.4782609 L12.8695652,14.4782609 L12.8695652,17.6956522 L16.0869565,17.6956522 C16.0869565,22.6005652 16.0869565,28.9565217 16.0869565,28.9565217 L20.9130435,28.9565217 C20.9130435,28.9565217 20.9130435,22.5426522 20.9130435,17.6956522 L24.2832609,17.6956522 L24.6757826,14.4782609 Z" id="Shape"></path>
                        </g>
                    </g>
                </g>
            </g>
        </g>
    </g>
</svg>