<?xml version="1.0" encoding="UTF-8"?>
<svg width="27px" height="29px" viewBox="0 0 27 29" version="1.1" xmlns="http://www.w3.org/2000/svg" xmlns:xlink="http://www.w3.org/1999/xlink">
    <!-- Generator: Sketch 51.2 (57519) - http://www.bohemiancoding.com/sketch -->
    <title>people icon</title>
    <desc>Created with Sketch.</desc>
    <defs></defs>
    <g id="Symbols" stroke="none" stroke-width="1" fill="none" fill-rule="evenodd" stroke-linejoin="round">
        <g id="components/top-bar-active-tab" transform="translate(-1486.000000, -31.000000)" stroke="#FFFFFF" stroke-width="2">
            <g id="Top-bar">
                <g id="Group-2" transform="translate(1487.000000, 23.000000)">
                    <g id="people-icon" transform="translate(0.000000, 9.000000)">
                        <path d="M9.50299672,17 C12.0890315,17 13.8075289,13.5501072 14.0583281,12.6762658 C14.1064419,12.4874448 14.3764831,12.5040497 14.5455281,12.1729092 C15.6641557,9.98164686 14.3656797,9.59155399 14.3656797,9.59155399 C14.3656797,9.59155399 14.4373765,8.2824413 14.1126106,7.05252301 C14.1126106,7.05252301 13.2925907,4 9.50299672,4 C5.71340275,4 4.89338141,7.05252301 4.89338141,7.05252301 C4.56861696,8.28244138 4.64031378,9.59155399 4.64031378,9.59155399 C4.64031378,9.59155399 3.34183558,10.1214415 4.44303806,12.1624256 C4.6062038,12.4648382 4.84379279,12.4245376 4.94766392,12.6762657 C5.19846311,13.5501073 6.91696046,17 9.50299672,17 Z" id="Shape"></path>
                        <path d="M12.6959045,16 C12.6959045,16 13.7245193,16.9307144 15.5559968,17.6543691 C19.2578935,19.1170638 20.0466719,22.8156395 19.9979203,27 M0.00176058717,27 C-0.0459712403,22.5560711 0.861908398,19.2818538 4.555407,17.8224774 C6.38688451,17.0988226 7.34835765,16.0840542 7.34835765,16.0840542" id="Shape"></path>
                        <path d="M19.5028658,22 L25,22 C24.9704355,18.910719 24.8931464,15.6297468 21.0175219,14.1964304 C19.1036468,13.4886254 17.4258118,12.2901343 17.4258118,12.2901343 C18.860974,11.6525497 20.1363695,9.41203409 20.3093173,8.82476153 C20.4173422,8.56962669 20.6644276,8.59389914 20.834116,8.28739249 C21.9793423,6.21878692 20.6289555,5.67344148 20.6289555,5.67344148 C20.6289555,5.67344148 20.7035185,4.34246838 20.3657713,3.09590583 C20.3657713,3.09590583 19.5129703,0 15.5718822,0 C11.6307941,0 11,3.35797982 11,3.35797982" id="Shape"></path>
                    </g>
                </g>
            </g>
        </g>
    </g>
</svg>