<?xml version="1.0" encoding="UTF-8"?>
<svg width="30px" height="30px" viewBox="0 0 30 30" version="1.1" xmlns="http://www.w3.org/2000/svg" xmlns:xlink="http://www.w3.org/1999/xlink">
    <!-- Generator: Sketch 53.2 (72643) - https://sketchapp.com -->
    <title>phone</title>
    <desc>Created with Sketch.</desc>
    <g id="Page-1" stroke="none" stroke-width="1" fill="none" fill-rule="evenodd">
        <g id="phone" transform="translate(0.500000, 0.500000)">
            <path d="M24.7715672,4.25029219 C22.0308475,1.5094591 18.3867763,2.66453526e-14 14.5107596,2.66453526e-14 C10.6350264,2.66453526e-14 6.99112529,1.5094591 4.25029219,4.25029219 C1.5094591,6.99112529 -3.01980663e-14,10.6350264 -3.01980663e-14,14.5107596 C-3.01980663e-14,18.387173 1.5094591,22.0313009 4.25029219,24.7719073 C6.99095524,27.5123436 10.6348564,29.0215193 14.5107596,29.0215193 C18.387003,29.0215193 22.0310175,27.5123436 24.7715105,24.7719073 C27.5121736,22.0313576 29.0215193,18.3872297 29.0215193,14.5107596 C29.0215193,10.6349698 27.5121736,6.99101192 24.7715672,4.25029219 Z M24.1302596,24.1305997 C21.5610049,26.6997411 18.1447413,28.1145968 14.5107596,28.1145968 C10.8770614,28.1145968 7.46091113,26.6997411 4.89154307,24.1305997 C2.32200496,21.5612884 0.906922478,18.1448547 0.906922478,14.5107596 C0.906922478,10.8772881 2.32200496,7.46113786 4.89154307,4.89154307 C7.46113786,2.32200496 10.8772881,0.906922478 14.5107596,0.906922478 C18.1445713,0.906922478 21.5608349,2.32200496 24.1302596,4.89154307 C26.6996277,7.4610245 28.1145968,10.8771747 28.1145968,14.5107596 C28.1145968,18.1449681 26.6996277,21.561345 24.1302596,24.1305997 Z" id="Shape-Copy" fill="#FFFFFF" fill-rule="nonzero"></path>
            <path d="M12.3254237,11.528 C12.9594237,10.894 13.0114237,9.918 12.4404237,9.346 L10.8904237,7.797 C10.3204237,7.227 9.34342365,7.277 8.70942365,7.912 L7.76542365,8.856 C6.94642365,9.676 6.76242365,10.896 7.32142365,11.782 C9.71942365,15.585 13.0134237,18.879 16.8174237,21.277 C17.7014237,21.836 18.9244237,21.651 19.7424237,20.834 L20.6864237,19.89 C21.3204237,19.255 21.3724237,18.279 20.8004237,17.708 L19.2514237,16.159 C18.6804237,15.589 17.7044237,15.639 17.0704237,16.273 L16.4964237,16.846 C14.7804237,15.471 13.1264237,13.818 11.7514237,12.101 L12.3254237,11.528 Z" id="Path" stroke="#FFFFFF" stroke-linecap="round" stroke-linejoin="round"></path>
        </g>
    </g>
</svg>